<svg xmlns="http://www.w3.org/2000/svg" xmlns:xlink="http://www.w3.org/1999/xlink" viewBox="0 0 463.6 165.91"><defs><style>.cls-1{fill:none;}.cls-2{fill:#1c1c1c;}.cls-3{clip-path:url(#clip-path);}.cls-4{fill:#1e1e1e;}.cls-5{fill:#212121;}.cls-6{fill:#232323;}</style><clipPath id="clip-path" transform="translate(44.78 15.87)"><rect class="cls-1" width="370" height="139" rx="5"/></clipPath></defs><title>Asset 13</title><g id="Layer_2" data-name="Layer 2"><g id="Layer_1-2" data-name="Layer 1"><rect class="cls-2" x="44.78" y="15.87" width="370" height="139" rx="5"/><g class="cls-3"><path class="cls-4" d="M-31.84,31C8.39-10.65,113.62,86,209,37c28.06-14.42,31-29,66.59-41.27,9.23-3.19,89-30.41,126.2,11.47,31.12,35,17.3,112.31-22.16,136.88-24.22,15.08-41.88.2-176.83-31.25C100.13,88.94,77,89.78,54,95.45,13,105.54-7.73,126-25.9,114.84-46.42,102.26-52.85,52.71-31.84,31Z" transform="translate(44.78 15.87)"/><path class="cls-5" d="M386.82,69.19c1.27-33.94-22.59-67.48-50-76C292.93-20.51,279,42.79,196.22,62.43,138.31,76.16,33.89,71.62-4.2,51.94-6.95,50.52-15,46.1-21.69,49.21-36.57,56.13-38,97.09-24.13,104.77c7.19,4,17.39-1.67,21.14-3.9,50.06-29.74,186.84-7.53,256.89,11.21,54.47,14.57,82.73,30.83,108.12,10.23C376.87,110.27,386.06,89.42,386.82,69.19Z" transform="translate(44.78 15.87)"/><path class="cls-6" d="M376,68.55c1.33-29.64-24.15-56.63-48.66-61.71-29.74-6.18-39.65,23.72-87,46.28C151.92,95.22,20.15,70.24-8.1,54.7c-1.88-1-8.15-4.69-13.45-2.37-11.85,5.18-13.91,38.05-2.37,45.1,6.76,4.14,17-1.38,20.57-3.17,48.72-24.14,181.84-6.11,250,9.1,53,11.83,80.52,25,105.23,8.31A56.33,56.33,0,0,0,376,68.55Z" transform="translate(44.78 15.87)"/></g></g></g></svg>