<svg xmlns="http://www.w3.org/2000/svg" xmlns:xlink="http://www.w3.org/1999/xlink" viewBox="0 0 444.26 171.93"><defs><style>.cls-1{fill:none;}.cls-2{fill:#1c1c1c;}.cls-3{clip-path:url(#clip-path);}.cls-4{fill:#232323;}.cls-5{fill:#252525;}.cls-6{fill:#212121;}.cls-7{fill:#1a1a1a;}.cls-8{fill:#131313;}</style><clipPath id="clip-path" transform="translate(35.4 4.75)"><rect class="cls-1" width="370" height="139" rx="5"/></clipPath></defs><title>Asset 8</title><g id="Layer_2" data-name="Layer 2"><g id="Layer_1-2" data-name="Layer 1"><rect class="cls-2" x="35.4" y="4.75" width="370" height="139" rx="5"/><g class="cls-3"><path class="cls-4" d="M-10.87,51.82c47-32.19,156.39,37.14,218,11.08A77.46,77.46,0,0,1,221,58.15c32.74-7.66,57.32,10.78,81.49,17.41,19.07,5.23,47.87,5.85,89.41-16.22v42.73l-193.45,44.3L-35.4,113.54C-33.79,75.29-21.79,59.3-10.87,51.82Z" transform="translate(35.4 4.75)"/><path class="cls-5" d="M-19.18,129.76C-9,96.5,61.47,82.91,117.7,90.59c61.4,8.39,57.51,35.54,103.65,34.82,49.11-.78,66.84-31.74,130.55-35.21a210.54,210.54,0,0,1,57,4.75v48.66C70.64,181.92-13.75,167.33-20,143.61-20.82,140.37-20.75,134.91-19.18,129.76Z" transform="translate(35.4 4.75)"/><path class="cls-6" d="M-18.38,14.24c-4.87,9.48-8.53,25.82-.4,36,3.21,4,10.49,9.87,35.21,8.31C49.72,56.44,65.82,44,85.26,38c51.29-15.82,68,31.19,133.32,25.71,49.12-4.12,62-32.58,97.72-21.76C347,51.24,357.84,78.47,370.89,74c8.81-3,16.44-19.74,12.26-78.33L1.4-4.75A43.75,43.75,0,0,0-18.38,14.24Z" transform="translate(35.4 4.75)"/></g><rect id="Rectangle_28" data-name="Rectangle 28" class="cls-7" x="365.05" y="65.28" width="17.92" height="64.54" rx="8.33"/><rect id="Rectangle_22" data-name="Rectangle 22" class="cls-8" x="365.05" y="19.97" width="17.92" height="62.55" rx="8.33"/><rect id="Rectangle_23" data-name="Rectangle 23" class="cls-7" x="271.82" y="18.67" width="17.92" height="64.54" rx="8.33"/><rect id="Rectangle_24" data-name="Rectangle 24" class="cls-8" x="271.82" y="67.93" width="17.92" height="61.33" rx="8.33"/><rect id="Rectangle_25" data-name="Rectangle 25" class="cls-7" x="271.82" y="111.9" width="111.16" height="17.92" rx="8.33"/><rect id="Rectangle_26" data-name="Rectangle 26" class="cls-7" x="271.82" y="18.67" width="111.16" height="17.92" rx="8.33"/><rect id="Rectangle_27" data-name="Rectangle 27" class="cls-7" x="271.82" y="65.28" width="111.16" height="17.92" rx="8.33"/><path id="Rectangle_29" data-name="Rectangle 29" class="cls-7" d="M263.58,55.35h0a3.49,3.49,0,0,1-3.49,3.49h0a3.49,3.49,0,0,1-3.49-3.49h0a3.49,3.49,0,0,1,3.49-3.49h0A3.49,3.49,0,0,1,263.58,55.35Z" transform="translate(35.4 4.75)"/><path id="Rectangle_30" data-name="Rectangle 30" class="cls-7" d="M263.62,46.24h0a3.49,3.49,0,0,1-3.49,3.49h0a3.49,3.49,0,0,1-3.49-3.49h0a3.49,3.49,0,0,1,3.49-3.49h0A3.49,3.49,0,0,1,263.62,46.24Z" transform="translate(35.4 4.75)"/><path id="Rectangle_31" data-name="Rectangle 31" class="cls-7" d="M263.58,37.12h0a3.49,3.49,0,0,1-3.49,3.49h0a3.49,3.49,0,0,1-3.49-3.49h0a3.49,3.49,0,0,1,3.49-3.49h0A3.49,3.49,0,0,1,263.58,37.12Z" transform="translate(35.4 4.75)"/><path id="Rectangle_32" data-name="Rectangle 32" class="cls-7" d="M306.34,55.35h0a1.49,1.49,0,0,1-1.49,1.49H267.8a1.49,1.49,0,0,1-1.5-1.49h0a1.5,1.5,0,0,1,1.5-1.49h37.05A1.49,1.49,0,0,1,306.34,55.35Z" transform="translate(35.4 4.75)"/><path id="Rectangle_33" data-name="Rectangle 33" class="cls-7" d="M306.34,46.24h0a1.49,1.49,0,0,1-1.49,1.49H267.8a1.49,1.49,0,0,1-1.49-1.49h0a1.5,1.5,0,0,1,1.49-1.5h37.05A1.49,1.49,0,0,1,306.34,46.24Z" transform="translate(35.4 4.75)"/><path id="Rectangle_34" data-name="Rectangle 34" class="cls-7" d="M306.34,37.12h0a1.49,1.49,0,0,1-1.49,1.49H267.8a1.5,1.5,0,0,1-1.5-1.49h0a1.49,1.49,0,0,1,1.5-1.49h37.05A1.49,1.49,0,0,1,306.34,37.12Z" transform="translate(35.4 4.75)"/><path id="Rectangle_35" data-name="Rectangle 35" class="cls-7" d="M327.34,101.92h0a3.49,3.49,0,0,1-3.49,3.49h0a3.49,3.49,0,0,1-3.49-3.49h0a3.49,3.49,0,0,1,3.49-3.49h0A3.49,3.49,0,0,1,327.34,101.92Z" transform="translate(35.4 4.75)"/><path id="Rectangle_36" data-name="Rectangle 36" class="cls-7" d="M327.3,92.81h0a3.49,3.49,0,0,1-3.49,3.49h0a3.49,3.49,0,0,1-3.49-3.49h0a3.49,3.49,0,0,1,3.49-3.49h0A3.49,3.49,0,0,1,327.3,92.81Z" transform="translate(35.4 4.75)"/><path id="Rectangle_37" data-name="Rectangle 37" class="cls-7" d="M327.34,83.69h0a3.49,3.49,0,0,1-3.49,3.49h0a3.49,3.49,0,0,1-3.49-3.49h0a3.49,3.49,0,0,1,3.49-3.49h0A3.49,3.49,0,0,1,327.34,83.69Z" transform="translate(35.4 4.75)"/><path id="Rectangle_38" data-name="Rectangle 38" class="cls-7" d="M317.63,101.92h0a1.5,1.5,0,0,1-1.49,1.5H279.09a1.5,1.5,0,0,1-1.49-1.5h0a1.49,1.49,0,0,1,1.49-1.49h37.05A1.49,1.49,0,0,1,317.63,101.92Z" transform="translate(35.4 4.75)"/><path id="Rectangle_39" data-name="Rectangle 39" class="cls-7" d="M317.63,92.81h0a1.49,1.49,0,0,1-1.49,1.49H279.09a1.5,1.5,0,0,1-1.5-1.49h0a1.49,1.49,0,0,1,1.5-1.49h37.05A1.49,1.49,0,0,1,317.63,92.81Z" transform="translate(35.4 4.75)"/><path id="Rectangle_40" data-name="Rectangle 40" class="cls-7" d="M317.63,83.69h0a1.49,1.49,0,0,1-1.49,1.49H279.09a1.49,1.49,0,0,1-1.5-1.49h0a1.5,1.5,0,0,1,1.5-1.49h37.05A1.49,1.49,0,0,1,317.63,83.69Z" transform="translate(35.4 4.75)"/></g></g></svg>