<svg xmlns="http://www.w3.org/2000/svg" width="308.4" height="84.283" viewBox="0 0 308.4 84.283">
  <g id="dc" transform="translate(-805.6 -401.009)">
    <g id="Discord-Logo_Wordmark-Black" data-name="Discord-Logo+Wordmark-Black" transform="translate(768.7 364.109)">
      <path id="Path_914" data-name="Path 914" d="M115.949,120.1a4.689,4.689,0,1,0,4.335,4.675A4.49,4.49,0,0,0,115.949,120.1Zm-15.513,0a4.689,4.689,0,1,0,4.335,4.675A4.49,4.49,0,0,0,100.435,120.1Z" transform="translate(-34.038 -47.838)"/>
      <path id="Path_915" data-name="Path 915" d="M102.567,36.9H45.613A8.725,8.725,0,0,0,36.9,45.613v56.954a8.725,8.725,0,0,0,8.713,8.713h48.2L91.559,103.5,97,108.517l5.143,4.718,9.181,7.948V45.613A8.789,8.789,0,0,0,102.567,36.9ZM86.161,91.941s-1.53-1.828-2.805-3.4c5.568-1.573,7.693-5.015,7.693-5.015a24.321,24.321,0,0,1-4.888,2.508A30.479,30.479,0,0,1,80,87.861a29.774,29.774,0,0,1-11.008-.043,32.359,32.359,0,0,1-6.248-1.828,24.908,24.908,0,0,1-3.1-1.445c-.128-.085-.255-.128-.383-.213-.085-.043-.128-.085-.17-.085-.765-.425-1.19-.723-1.19-.723s2.04,3.358,7.438,4.973c-1.275,1.615-2.848,3.485-2.848,3.485-9.393-.3-12.963-6.418-12.963-6.418A56.116,56.116,0,0,1,55.644,61a21.062,21.062,0,0,1,11.9-4.42l.425.51c-7.65,2.168-11.136,5.525-11.136,5.525s.935-.51,2.508-1.19a33.3,33.3,0,0,1,9.648-2.678,4.188,4.188,0,0,1,.723-.085,35.962,35.962,0,0,1,8.586-.085,35.332,35.332,0,0,1,12.793,4.038s-3.358-3.188-10.583-5.355l.6-.68A20.974,20.974,0,0,1,93,61a56.116,56.116,0,0,1,6.12,24.567C99.124,85.523,95.554,91.644,86.161,91.941Zm64.179-36.85H136.229V70.945l9.393,8.458V64.017h5.015c3.188,0,4.76,1.53,4.76,4V79.785c0,2.465-1.488,4.123-4.76,4.123H136.186v8.968H150.3c7.565.043,14.663-3.74,14.663-12.411V67.8c.043-8.841-7.055-12.708-14.621-12.708Zm73.955,25.374V67.459c0-4.675,8.416-5.738,10.966-1.063l7.778-3.145a13.993,13.993,0,0,0-13.261-8.671c-7.565,0-15.046,4.378-15.046,12.878V80.465c0,8.586,7.48,12.878,14.876,12.878a15.176,15.176,0,0,0,13.6-8.458l-8.331-3.825c-2.04,5.228-10.583,3.953-10.583-.6ZM198.58,69.245c-2.933-.638-4.888-1.7-5.015-3.528.17-4.378,6.928-4.548,10.881-.34l6.248-4.8a15.5,15.5,0,0,0-12.878-6.035c-6.928,0-13.643,3.91-13.643,11.306,0,7.183,5.525,11.051,11.6,11.986,3.1.425,6.545,1.658,6.46,3.783-.255,4.038-8.586,3.825-12.368-.765L183.832,86.5c3.528,4.548,8.331,6.843,12.836,6.843,6.928,0,14.621-4,14.918-11.306C212.011,72.815,205.3,70.477,198.58,69.245ZM170.1,92.834h9.521V55.091H170.1ZM330.636,55.091H316.526V70.945l9.393,8.458V64.017h5.015c3.188,0,4.76,1.53,4.76,4V79.785c0,2.465-1.488,4.123-4.76,4.123H316.483v8.968h14.153c7.565.043,14.663-3.74,14.663-12.411V67.8c0-8.841-7.1-12.708-14.663-12.708Zm-69.237-.51c-7.821,0-15.6,4.25-15.6,12.963V80.423c0,8.628,7.821,12.963,15.684,12.963,7.82,0,15.6-4.335,15.6-12.963V67.544C277.083,58.874,269.22,54.581,261.4,54.581Zm6.12,25.842c0,2.72-3.06,4.123-6.078,4.123-3.06,0-6.12-1.318-6.12-4.123V67.544c0-2.763,2.975-4.25,5.95-4.25,3.1,0,6.248,1.318,6.248,4.25Zm43.735-12.878c-.213-8.841-6.248-12.411-14.026-12.411H282.141V92.876h9.648V80.89h1.7l8.756,11.986h11.9L303.86,79.913C308.408,78.468,311.255,74.515,311.255,67.544Zm-13.856,5.1h-5.61V64.017h5.61A4.318,4.318,0,1,1,297.4,72.645Z"/>
    </g>
  </g>
</svg>
