<svg xmlns="http://www.w3.org/2000/svg" width="1741.559" height="1484.121" viewBox="0 0 1741.559 1484.121">
  <path id="Path_92" data-name="Path 92" d="M540.189-1342.864c47.552-102.236-206.375-320.975-83.691-332.863s283.409,203.522,460.3,203.522,145.033-235.857,247.27-203.522,79.411,214.459,230.151,302.43,323.828,153.117,367.1,264.388-248.221.475-380.415,77.985,70.377,220.165-30.433,252.976-280.081-159.3-393.729-150.264-261.06,165-353.786,129.341,112.223-199.718-17.119-272S274.374-875.905,272-1021.414,492.637-1240.628,540.189-1342.864Z" transform="matrix(0.891, 0.454, -0.454, 0.891, -593.801, 1372.321)" fill="rgba(98,53,255,0.36)"/>
</svg>
