<svg id="Layer_1" data-name="Layer 1" xmlns="http://www.w3.org/2000/svg" viewBox="0 0 663.94 340.94"><defs><style>.cls-1{fill:#ed1e79;}.cls-2{fill:#6235ff;}</style></defs><title>Favicon</title><rect class="cls-1" x="614.53" y="24.71" width="49.41" height="137.19" rx="9.46"/><rect x="357.53" width="49.41" height="177.91" rx="9.46"/><rect class="cls-1" x="357.53" y="135.79" width="49.41" height="160.22" rx="9.46"/><rect x="1305.58" y="515.29" width="49.41" height="306.41" rx="9.46" transform="translate(1179.23 -1048.58) rotate(90)"/><rect x="1305.58" y="258.3" width="49.41" height="306.41" rx="9.46" transform="translate(922.24 -1305.58) rotate(90)"/><rect x="1305.58" y="386.79" width="49.41" height="306.41" rx="9.46" transform="translate(1050.74 -1177.08) rotate(90)"/><rect x="614.53" y="128.5" width="49.41" height="177.91" rx="9.46"/><rect class="cls-2" x="1232.7" y="491.38" width="19.24" height="19.24" rx="9.62" transform="translate(923.78 -1128.11) rotate(90)"/><rect class="cls-2" x="1232.82" y="466.25" width="19.24" height="19.24" rx="9.62" transform="translate(898.76 -1153.36) rotate(90)"/><rect class="cls-2" x="1232.7" y="441.12" width="19.24" height="19.24" rx="9.62" transform="translate(873.51 -1178.37) rotate(90)"/><rect class="cls-2" x="1310.52" y="445.83" width="8.23" height="110.36" rx="4.12" transform="translate(996.1 -1200.43) rotate(90)"/><rect class="cls-2" x="1310.52" y="420.69" width="8.23" height="110.36" rx="4.12" transform="translate(970.97 -1225.56) rotate(90)"/><rect class="cls-2" x="1310.52" y="395.56" width="8.23" height="110.36" rx="4.12" transform="translate(945.83 -1250.69) rotate(90)"/><rect class="cls-2" x="1408.46" y="619.76" width="19.24" height="19.24" rx="9.62" transform="translate(1227.92 -1175.5) rotate(90)"/><rect class="cls-2" x="1408.35" y="594.63" width="19.24" height="19.24" rx="9.62" transform="translate(1202.67 -1200.51) rotate(90)"/><rect class="cls-2" x="1408.46" y="569.5" width="19.24" height="19.24" rx="9.62" transform="translate(1177.65 -1225.76) rotate(90)"/><rect class="cls-2" x="1341.65" y="574.2" width="8.23" height="110.36" rx="4.12" transform="translate(1155.6 -1103.18) rotate(90)"/><rect class="cls-2" x="1341.65" y="549.07" width="8.23" height="110.36" rx="4.12" transform="translate(1130.46 -1128.31) rotate(90)"/><rect class="cls-2" x="1341.65" y="523.94" width="8.23" height="110.36" rx="4.12" transform="translate(1105.33 -1153.44) rotate(90)"/><text x="-819.55" y="-386.79"/></svg>