<svg id="Favicon_Dark" data-name="Favicon Dark" xmlns="http://www.w3.org/2000/svg" width="126.207" height="126.203" viewBox="0 0 126.207 126.203">
  <rect id="Rectangle_28" data-name="Rectangle 28" width="20.351" height="73.277" rx="9.46" transform="translate(105.852 52.926)" fill="#1a1a1a"/>
  <rect id="Rectangle_22" data-name="Rectangle 22" width="20.351" height="71.011" rx="9.46" transform="translate(105.852 1.474)" fill="#131313"/>
  <rect id="Rectangle_23" data-name="Rectangle 23" width="20.351" height="73.277" rx="9.46" transform="translate(0 0)" fill="#1a1a1a"/>
  <rect id="Rectangle_24" data-name="Rectangle 24" width="20.351" height="69.629" rx="9.46" transform="translate(0 55.929)" fill="#131313"/>
  <rect id="Rectangle_25" data-name="Rectangle 25" width="20.351" height="126.203" rx="9.46" transform="translate(126.203 105.852) rotate(90)" fill="#1a1a1a"/>
  <rect id="Rectangle_26" data-name="Rectangle 26" width="20.351" height="126.203" rx="9.46" transform="translate(126.203 0) rotate(90)" fill="#1a1a1a"/>
  <rect id="Rectangle_27" data-name="Rectangle 27" width="20.351" height="126.203" rx="9.46" transform="translate(126.207 52.926) rotate(90)" fill="#1a1a1a"/>
  <rect id="Rectangle_29" data-name="Rectangle 29" width="7.925" height="7.924" rx="3.962" transform="translate(30.837 43.078) rotate(90)" fill="#1a1a1a"/>
  <rect id="Rectangle_30" data-name="Rectangle 30" width="7.925" height="7.924" rx="3.962" transform="translate(30.882 32.728) rotate(90)" fill="#1a1a1a"/>
  <rect id="Rectangle_31" data-name="Rectangle 31" width="7.925" height="7.924" rx="3.962" transform="translate(30.833 22.377) rotate(90)" fill="#1a1a1a"/>
  <rect id="Rectangle_32" data-name="Rectangle 32" width="3.39" height="45.455" rx="1.695" transform="translate(79.385 45.343) rotate(90)" fill="#1a1a1a"/>
  <rect id="Rectangle_33" data-name="Rectangle 33" width="3.39" height="45.455" rx="1.695" transform="translate(79.389 34.993) rotate(90)" fill="#1a1a1a"/>
  <rect id="Rectangle_34" data-name="Rectangle 34" width="3.39" height="45.455" rx="1.695" transform="translate(79.385 24.643) rotate(90)" fill="#1a1a1a"/>
  <rect id="Rectangle_35" data-name="Rectangle 35" width="7.925" height="7.924" rx="3.962" transform="translate(103.228 95.951) rotate(90)" fill="#1a1a1a"/>
  <rect id="Rectangle_36" data-name="Rectangle 36" width="7.925" height="7.924" rx="3.962" transform="translate(103.179 85.604) rotate(90)" fill="#1a1a1a"/>
  <rect id="Rectangle_37" data-name="Rectangle 37" width="7.925" height="7.924" rx="3.962" transform="translate(103.224 75.25) rotate(90)" fill="#1a1a1a"/>
  <rect id="Rectangle_38" data-name="Rectangle 38" width="3.39" height="45.455" rx="1.695" transform="translate(92.206 98.22) rotate(90)" fill="#1a1a1a"/>
  <rect id="Rectangle_39" data-name="Rectangle 39" width="3.39" height="45.455" rx="1.695" transform="translate(92.202 87.87) rotate(90)" fill="#1a1a1a"/>
  <rect id="Rectangle_40" data-name="Rectangle 40" width="3.39" height="45.455" rx="1.695" transform="translate(92.202 77.519) rotate(90)" fill="#1a1a1a"/>
</svg>
