<svg id="Layer_1" data-name="Layer 1" xmlns="http://www.w3.org/2000/svg" viewBox="0 0 676.7 340.94"><defs><style>.cls-1{fill:#6235ff;}.cls-2{fill:#ed1e79;}</style></defs><title>Icon</title><rect class="cls-1" width="49.41" height="306.41" rx="9.46"/><rect class="cls-1" x="935.29" y="515.29" width="49.41" height="306.41" rx="9.46" transform="translate(821.7 -678.3) rotate(90)"/><rect class="cls-1" x="257" width="49.41" height="306.41" rx="9.46"/><rect class="cls-2" x="627.28" y="24.71" width="49.41" height="137.19" rx="9.46"/><rect x="370.29" width="49.41" height="177.91" rx="9.46"/><rect class="cls-2" x="370.29" y="135.79" width="49.41" height="160.22" rx="9.46"/><rect x="1305.58" y="515.29" width="49.41" height="306.41" rx="9.46" transform="translate(1191.99 -1048.58) rotate(90)"/><rect x="1305.58" y="258.3" width="49.41" height="306.41" rx="9.46" transform="translate(934.99 -1305.58) rotate(90)"/><rect x="1305.58" y="386.79" width="49.41" height="306.41" rx="9.46" transform="translate(1063.49 -1177.08) rotate(90)"/><rect x="627.28" y="128.5" width="49.41" height="177.91" rx="9.46"/><rect class="cls-1" x="1232.7" y="491.38" width="19.24" height="19.24" rx="9.62" transform="translate(936.53 -1128.11) rotate(90)"/><rect class="cls-1" x="1232.82" y="466.25" width="19.24" height="19.24" rx="9.62" transform="translate(911.52 -1153.36) rotate(90)"/><rect class="cls-1" x="1232.7" y="441.12" width="19.24" height="19.24" rx="9.62" transform="translate(886.27 -1178.37) rotate(90)"/><rect class="cls-1" x="1310.52" y="445.83" width="8.23" height="110.36" rx="4.12" transform="translate(1008.85 -1200.43) rotate(90)"/><rect class="cls-1" x="1310.52" y="420.69" width="8.23" height="110.36" rx="4.12" transform="translate(983.72 -1225.56) rotate(90)"/><rect class="cls-1" x="1310.52" y="395.56" width="8.23" height="110.36" rx="4.12" transform="translate(958.59 -1250.69) rotate(90)"/><rect class="cls-1" x="1408.46" y="619.76" width="19.24" height="19.24" rx="9.62" transform="translate(1240.67 -1175.5) rotate(90)"/><rect class="cls-1" x="1408.35" y="594.63" width="19.24" height="19.24" rx="9.62" transform="translate(1215.42 -1200.51) rotate(90)"/><rect class="cls-1" x="1408.46" y="569.5" width="19.24" height="19.24" rx="9.62" transform="translate(1190.41 -1225.76) rotate(90)"/><rect class="cls-1" x="1341.65" y="574.2" width="8.23" height="110.36" rx="4.12" transform="translate(1168.35 -1103.18) rotate(90)"/><rect class="cls-1" x="1341.65" y="549.07" width="8.23" height="110.36" rx="4.12" transform="translate(1143.22 -1128.31) rotate(90)"/><rect class="cls-1" x="1341.65" y="523.94" width="8.23" height="110.36" rx="4.12" transform="translate(1118.09 -1153.44) rotate(90)"/><text x="-806.79" y="-386.79"/></svg>