<svg xmlns="http://www.w3.org/2000/svg" width="445" height="126" viewBox="0 0 445 126">
  <g id="Group_156" data-name="Group 156" transform="translate(-20 -18)">
    <text id="SORRY_WERE_UNDER_CONSTRUCTION" data-name="SORRY,
WERE UNDER
CONSTRUCTION" transform="translate(148 57)" font-size="35" font-family="Arial-Black, Arial" font-weight="800"><tspan x="0" y="0">SORRY,</tspan><tspan x="0" y="38">WE'RE UNDER</tspan><tspan x="0" y="76">CONSTRUCTION</tspan></text>
    <g id="Favicon" transform="translate(20 25.541)">
      <rect id="Rectangle_28" data-name="Rectangle 28" width="17.631" height="63.485" rx="8.816" transform="translate(91.707 45.853)"/>
      <rect id="Rectangle_22" data-name="Rectangle 22" width="17.631" height="62.779" rx="8.816" transform="translate(91.707 0.02)" fill="#ed1e79"/>
      <rect id="Rectangle_23" data-name="Rectangle 23" width="17.631" height="63.485" rx="8.816" transform="translate(0 0)"/>
      <rect id="Rectangle_24" data-name="Rectangle 24" width="17.631" height="60.324" rx="8.816" transform="translate(0 48.455)" fill="#ed1e79"/>
      <rect id="Rectangle_25" data-name="Rectangle 25" width="17.631" height="109.338" rx="8.816" transform="translate(109.338 91.707) rotate(90)"/>
      <rect id="Rectangle_26" data-name="Rectangle 26" width="17.631" height="109.338" rx="8.816" transform="translate(109.338 0) rotate(90)"/>
      <path id="Path_89" data-name="Path 89" d="M8.816,0a8.816,8.816,0,0,1,8.816,8.816v91.707a8.816,8.816,0,1,1-17.631,0V8.816A8.816,8.816,0,0,1,8.816,0Z" transform="translate(109.341 45.853) rotate(90)"/>
      <rect id="Rectangle_29" data-name="Rectangle 29" width="6.866" height="6.866" rx="3.433" transform="translate(26.716 37.321) rotate(90)"/>
      <rect id="Rectangle_30" data-name="Rectangle 30" width="6.866" height="6.866" rx="3.433" transform="translate(26.755 28.354) rotate(90)"/>
      <rect id="Rectangle_31" data-name="Rectangle 31" width="6.866" height="6.866" rx="3.433" transform="translate(26.713 19.387) rotate(90)"/>
      <rect id="Rectangle_32" data-name="Rectangle 32" width="2.937" height="39.38" rx="1.468" transform="translate(68.776 39.284) rotate(90)"/>
      <rect id="Rectangle_33" data-name="Rectangle 33" width="2.937" height="39.38" rx="1.468" transform="translate(68.78 30.317) rotate(90)"/>
      <rect id="Rectangle_34" data-name="Rectangle 34" width="2.937" height="39.38" rx="1.468" transform="translate(68.776 21.349) rotate(90)"/>
      <rect id="Rectangle_35" data-name="Rectangle 35" width="6.866" height="6.866" rx="3.433" transform="translate(89.433 83.128) rotate(90)"/>
      <rect id="Rectangle_36" data-name="Rectangle 36" width="6.866" height="6.866" rx="3.433" transform="translate(89.391 74.165) rotate(90)"/>
      <rect id="Rectangle_37" data-name="Rectangle 37" width="6.866" height="6.866" rx="3.433" transform="translate(89.43 65.194) rotate(90)"/>
      <rect id="Rectangle_38" data-name="Rectangle 38" width="2.937" height="39.38" rx="1.468" transform="translate(79.885 85.094) rotate(90)"/>
      <rect id="Rectangle_39" data-name="Rectangle 39" width="2.937" height="39.38" rx="1.468" transform="translate(79.881 76.127) rotate(90)"/>
      <rect id="Rectangle_40" data-name="Rectangle 40" width="2.937" height="39.38" rx="1.468" transform="translate(79.881 67.16) rotate(90)"/>
    </g>
  </g>
</svg>
