<svg xmlns="http://www.w3.org/2000/svg" xmlns:xlink="http://www.w3.org/1999/xlink" viewBox="0 0 412.16 190.73"><defs><style>.cls-1{fill:none;}.cls-2{fill:#1c1c1c;}.cls-3{clip-path:url(#clip-path);}.cls-4{fill:#1e1e1e;}.cls-5{fill:#212121;}.cls-6{fill:#232323;}.cls-7{fill:#252525;}</style><clipPath id="clip-path" transform="translate(28.08 23.64)"><rect class="cls-1" width="370" height="139" rx="5"/></clipPath></defs><title>Asset 11</title><g id="Layer_2" data-name="Layer 2"><g id="Layer_1-2" data-name="Layer 1"><rect class="cls-2" x="28.08" y="23.64" width="370" height="139" rx="5"/><g class="cls-3"><path class="cls-4" d="M-8.36,19.9c8.59-2.49,13,7.69,24,6.07C38.3,22.61,45.28-24.78,53.88-23.62s-.05,48.38,17.93,58c23.35,12.51,77.72-45.72,84.4-39,4,4-16,23.78-9.5,37.19,4.77,9.79,21,10.74,35,11.59,14.94.91,45,2.73,68.11-16.6,17.61-14.71,12.49-26,29.8-37.55,19.39-12.94,48.73-14,56.7-2.54,6.26,9-5.57,18.73-6.33,47.74-.07,2.68-.73,37.09,11.34,40.88,9.78,3.07,18.91-16.81,28.65-14.24,10.8,2.84,18.93,32.38,10.38,52.74C357.67,168.74,214.53,164,208.16,141.22c-2.31-8.28,14.59-15.08,11.87-25.06-5.63-20.72-85.77-22.25-93.1-4.48-2.49,6.06,7.33,14.38,4.49,17.94-5.35,6.68-38.37-24.92-63.56-16.09-25.46,8.92-31,54.94-36.66,53.54-5-1.23,6.36-34.65-9.52-49.62-11-10.43-24-1.24-36.11-10.52C-37.78,89.07-28.13,25.62-8.36,19.9Z" transform="translate(28.08 23.64)"/><path class="cls-5" d="M28.56,141.75c-2.2-3.36,1.56-8,2.9-12.66C37.31,108.61-4.61,92.24-3.88,69c.42-13.25,14.4-20.91,38.24-53.28,2.11-2.86,10-13.87,6.6-20.83-.58-1.17-1.54-2.33-1.06-3.17C41-10.21,47.22-6.66,58.36-5.95c3.89.25,5.25,0,6.07,1.06,2.18,3-4.83,8.88-6.33,16.35-2,9.74,5.54,21.62,13.71,27.17C91.53,52,114,27.71,135.11,40.74c12.28,7.56,14.66,21.85,24.26,21.1,6.81-.54,7.91-7.89,16.36-9.5,9.06-1.73,22.31,4,23.73,13.71s-9.72,19.76-18.72,19.79c-10.18,0-13.36-12.63-21.89-11.87-9.2.81-8.06,15.74-20.84,24.52-11.1,7.64-18.17.63-48.79,6.07-13.21,2.35-19.81,3.52-24.53,7.65-11.6,10.16-7.47,24.75-19,30.59C39.51,145.94,31,145.45,28.56,141.75Z" transform="translate(28.08 23.64)"/><path class="cls-6" d="M21.44,63.42C24,37.83,43,15.35,50.71,17.79,57.79,20,52,42.27,64.43,49.18c5.59,3.09,8.78-.26,19.25,1C94,51.53,113.36,57.6,115.07,70c1.64,12-13.62,26.2-25.06,25.06-9.56-1-10.9-12.11-21.1-12.66C60.24,81.94,50.34,89.42,47,98c-2.66,6.84-.63,13.14-3.43,14.24s-7-3.9-8.44-5.54C19.05,87.84,21.44,63.42,21.44,63.42Z" transform="translate(28.08 23.64)"/><path class="cls-7" d="M87.37,61c-5.27-4.17-12,2.59-20.3-1.58-7.69-3.85-6.67-12-13.19-13.72-6-1.59-12.93,3.64-16.35,8.18C28.42,66,34,86.88,41.22,88.7c6.91,1.74,11.5-14.74,24-15,10.84-.25,16.21,11.94,21.63,9.5S93.42,65.8,87.37,61Z" transform="translate(28.08 23.64)"/><path class="cls-5" d="M287.5-13c-17,9.21-13.35,26.77-37.4,46.86-3.9,3.26-7.53,5.74-10,11.08-6.37,13.58,3.95,25.64-1.59,31.91-6.54,7.4-26.73-2.89-29,1.58s17.57,12.78,18.73,28c1,12.57-11.71,18.48-9.5,25.84,3.08,10.22,30.94,10.33,53.54,10,42.59-.56,111.37-1.48,111.83-11.07.29-6.18-28-9-28.49-19.52-.45-10.31,26.5-14.06,27.17-25.32C383.68,71,333.83,67.57,326.05,40c-5.54-19.71,15.26-34.19,7.13-47.21C326.23-18.39,302.68-21.21,287.5-13Z" transform="translate(28.08 23.64)"/></g><rect class="cls-2" x="282.25" y="37.96" width="75.67" height="75.67" rx="37.84"/><path class="cls-2" d="M321.46,82.2H262.54A25.54,25.54,0,0,0,237,107.74h0a17.74,17.74,0,0,0,17.74,17.74h74.52A17.74,17.74,0,0,0,347,107.74h0A25.54,25.54,0,0,0,321.46,82.2Z" transform="translate(28.08 23.64)"/></g></g></svg>