<svg xmlns="http://www.w3.org/2000/svg" xmlns:xlink="http://www.w3.org/1999/xlink" viewBox="0 0 530.74 137.35"><defs><style>.cls-1{fill:none;}.cls-2{isolation:isolate;}.cls-3{fill:url(#linear-gradient);}.cls-4{opacity:0.42;}.cls-5{clip-path:url(#clip-path);}.cls-6{mix-blend-mode:soft-light;}.cls-7{fill:#fff;}</style><linearGradient id="linear-gradient" x1="33.76" y1="-72.73" x2="448.46" y2="282.66" gradientUnits="userSpaceOnUse"><stop offset="0.06" stop-color="#ff7f51"/><stop offset="0.18" stop-color="#fc7d55"/><stop offset="0.3" stop-color="#f17861"/><stop offset="0.42" stop-color="#df7074"/><stop offset="0.54" stop-color="#c66490"/><stop offset="0.66" stop-color="#a655b3"/><stop offset="0.78" stop-color="#8043de"/><stop offset="0.86" stop-color="#6235ff"/></linearGradient><clipPath id="clip-path" transform="translate(12.23 10.86)"><rect class="cls-1" width="370" height="113" rx="5"/></clipPath></defs><title>Asset 1</title><g class="cls-2"><g id="Layer_2" data-name="Layer 2"><g id="Layer_1-2" data-name="Layer 1"><rect class="cls-3" x="12.23" y="10.86" width="370" height="113" rx="5"/><g class="cls-4"><g class="cls-5"><g class="cls-6"><path class="cls-7" d="M318.83,106.83q-18.07.09-36.16.49a140.33,140.33,0,0,0,15.05.77c1.3,0,2.6,0,3.89,0,5.76-.12,11.5-.55,17.22-1.21m4.22-3.49-3.64.49,5.88,0-2.24-.47m15.42-2.63c-2.3.45-4.61.89-6.93,1.29q4.06.8,8.14,1.51,3.75-.74,7.47-1.55c-2.9-.35-5.8-.76-8.68-1.25m-76.07-.94-4.46.64.81.53c.84.55,1.68,1.09,2.54,1.62.8.29,1.62.58,2.44.84,1.46.47,2.94.9,4.42,1.29q7.14-.21,14.27-.37a105.66,105.66,0,0,1-11.82-2.12,77.2,77.2,0,0,1-8.2-2.43m89.12-1.86-3.81.86-.88.19q4.68.58,9.38.94l1.57-.38c-.76-.3-1.53-.61-2.29-.93-1.32-.24-2.64-.46-4-.68m-98.73-2.39-1.45.15c1,.77,2,1.52,3,2.26l2.57-.37c-1.4-.64-2.78-1.31-4.14-2M243,92.67l-.45.13,1,.63.3,0-.84-.74m3.9-.56,1.14,1,.36,0-1.5-.92M424.18,81.38l-.26,0c-21.89,3.36-43.18,9.47-64.67,14.68q3.45.66,6.89,1.4c16.28-4.07,32.48-8.46,49-11.55,3.19-.6,6.39-1.14,9.6-1.64,1.81-.27,1.16-2.91-.54-2.91m-210.08-7a204.7,204.7,0,0,1,17.45,10.88c2.58,1.79,5.16,3.59,7.75,5.35l1.15-.33q-3.84-3.62-7.36-7.56-3.72-2.55-7.53-5-5.77-1.55-11.46-3.38M188.89,59.65l0,0q5.61,2.37,11.31,4.5-5.56-2.43-11.29-4.52m-90-12.87c-10.67.51-21.71,1.46-31.56,5.7a40,40,0,0,0-7.63,4.28,1.84,1.84,0,0,0-.29.26l2.4,1.91c9.78-6.71,21.93-8.12,33.5-8.92,1.28-.09,2.55-.16,3.83-.23-.12-1-.2-2-.25-3M112,46.44c-3.23,0-6.47.07-9.7.19q.83,1.48,1.68,2.94c2.67-.09,5.35-.13,8-.13q9.5,0,19,.75A221.29,221.29,0,0,1,173,57.64l.94-.49c-2.53-1.38-5-2.82-7.51-4.3a227.13,227.13,0,0,0-28.73-5A235.67,235.67,0,0,0,112,46.44" transform="translate(12.23 10.86)"/><path class="cls-7" d="M292.66,85.61l-.35.16.62,0-.27-.14m-12.41-2.85q-5,1.21-10,2.49,6.92.48,13.84.57l2.23-.8c1-.38,2.05-.78,3.07-1.19-.57-.32-1.14-.64-1.7-1h-.87c-2.19,0-4.39,0-6.58-.1m43.67-3a221.67,221.67,0,0,1-24.53,2.71c-1.07.53-2.15,1-3.24,1.55,1,.49,2,1,3,1.44q10.25-.54,20.41-2,4.17-.6,8.29-1.37c-1.29-.79-2.58-1.57-3.89-2.34M244.4,79q6.87,2.16,13.75,4.26l3.7,1.11,1.83-.48q3.1-.83,6.23-1.62-5.79-.42-11.56-1.13c-4.66-.57-9.32-1.28-14-2.14m-10.89-.3L234.68,80c2.93.66,5.88,1.27,8.83,1.81q-5-1.56-10-3.16m-13.85-4.52c2,1.17,4,2.38,5.9,3.62,1.4.37,2.8.74,4.2,1.08-.51-.62-1-1.25-1.54-1.89-2.86-.93-5.71-1.86-8.56-2.81m-7-.54-.29.22,1.7.56-1.41-.78m161.26-4c-3.83.06-7.67.19-11.5.38-11.15,3.47-22.33,6.82-33.83,9,1.21.76,2.41,1.53,3.6,2.32,7.65-1.58,15.21-3.55,22.7-5.79,6.37-1.91,12.69-3.95,19-5.93M186.36,61.89l-1.14,1,.43.2a235.23,235.23,0,0,0,23.27,9.54l.84-.59q-4.66-2.43-9.48-4.58L199.14,67Q193,64.68,187,62.12l-.64-.23m205.73-.74c-6.35,1.64-12.64,3.51-18.91,5.45,1.81,0,3.63,0,5.45,0s3.37,0,5.05,0c3.16-.92,6.34-1.81,9.53-2.63q3.5-.9,7-1.68c-2.73-.35-5.44-.72-8.16-1.13M177.18,58.86h0c1.69.89,3.39,1.75,5.09,2.6l.8-.73c-2-.66-3.9-1.28-5.87-1.88m225.22-.07a2,2,0,0,0-.34,0l-2,.43c1.23.15,2.46.31,3.7.45a1.5,1.5,0,0,0-1.37-.91M86.07,19.05a158.6,158.6,0,0,0-25.45,8c-3,1.16-5.9,2.37-8.84,3.59-1.56.65-1.13,3,.24,3a1.53,1.53,0,0,0,.56-.12C63.44,29,75.25,24.29,87.22,21.87c-.39-.94-.77-1.88-1.15-2.82m26.55-.89a32.83,32.83,0,0,0-2.43,2.58,49.9,49.9,0,0,1,15.94,4.91c10.72,5.41,19.74,13.67,29.63,20.39,3.5,2.37,7.06,4.65,10.69,6.81l2.79.7a155.26,155.26,0,0,1-25.58-17.66c-5-4.25-9.91-8.65-15.37-12.32-.3-.2-.6-.4-.91-.59a56.72,56.72,0,0,0-14.76-4.82m-10.49-.93c-1.54,0-3.1.05-4.66.17-2.83.21-5.64.58-8.43,1.07.39,1,.77,1.9,1.17,2.85a73.21,73.21,0,0,1,12.22-1.08c1.4,0,2.8,0,4.2.14a35.67,35.67,0,0,1,2.31-2.77,59.27,59.27,0,0,0-6.81-.38" transform="translate(12.23 10.86)"/><path class="cls-7" d="M214.36,72.36c-.55.43-1.11.84-1.67,1.25l1.41.78q5.68,1.83,11.46,3.38c-1.95-1.24-3.91-2.45-5.9-3.62l-5.3-1.79M199.14,67l1.14.51q4.82,2.14,9.48,4.58L211,71.2c-3.95-1.36-7.89-2.76-11.81-4.23m-12.75-5.11,0,0,.64.23-.61-.26m-8-3.61-1.23.61c2,.6,3.92,1.22,5.87,1.88l.26-.23c-1.64-.73-3.28-1.49-4.9-2.26m-12-5.4c2.47,1.48,5,2.92,7.51,4.3L175,56.6c-1.95-1-3.88-2-5.79-3.05l-2.79-.7" transform="translate(12.23 10.86)"/><path class="cls-7" d="M181.91,56.59l-.83.38c1.51.48,3,1,4.49,1.5l.17-.15c-1.28-.56-2.56-1.14-3.83-1.73M36.45,27.12q-2.19,1.08-4.38,2.19c-1.48.74-.57,2.76.81,2.76a1.6,1.6,0,0,0,.71-.17c1.25-.64,2.52-1.27,3.79-1.9-.32-.95-.64-1.91-.93-2.88M94,10.56c-18.22,0-36.48,6.51-52.83,14.26l-2,1q.44,1.44.93,2.88C54,22,68.89,16,84.12,14.15c-.16-.41-.32-.81-.48-1.23-.42-1.09.47-1.8,1.4-1.8a1.54,1.54,0,0,1,1.49,1l.67,1.71q3.26-.29,6.53-.29a67.45,67.45,0,0,1,16.88,2.09l.24.06.64-.58a1.53,1.53,0,0,1,1-.39,1.58,1.58,0,0,1,1.55,1.9A56.32,56.32,0,0,1,127.38,23c1.69.81,3.34,1.71,5,2.7,10.19,6.18,19.19,14.14,29.2,20.6q7.65,4.94,15.67,9.23l1.19-.58a149.44,149.44,0,0,1-30.28-19.19c-9.81-8.14-19-16.93-31.27-21.33A66.89,66.89,0,0,0,94,10.56" transform="translate(12.23 10.86)"/><path class="cls-7" d="M181.08,57l-.57.27q2.06,1,4.13,2.07l.93-.84c-1.49-.52-3-1-4.49-1.5" transform="translate(12.23 10.86)"/><path class="cls-7" d="M127.38,23c.31.19.61.39.91.59,5.46,3.67,10.36,8.07,15.37,12.32a155.26,155.26,0,0,0,25.58,17.66q3.84,1,7.65,2.12l.33-.16q-8-4.3-15.67-9.23c-10-6.46-19-14.42-29.2-20.6-1.63-1-3.28-1.89-5-2.7" transform="translate(12.23 10.86)"/><path class="cls-7" d="M180.51,57.24l-2.1,1c1.62.77,3.26,1.53,4.9,2.26l1.33-1.2q-2.07-1-4.13-2.07m-11.27-3.69c1.91,1.06,3.84,2.07,5.79,3.05l1.86-.93q-3.81-1.12-7.65-2.12" transform="translate(12.23 10.86)"/><path class="cls-7" d="M417.23,109.33c-1.12.1-2.24.2-3.37.27,2.73.73,5.46,1.46,8.2,2.17,1.84-.26,3.67-.56,5.49-.92a1.25,1.25,0,0,0,1.05-1c-3.79-.14-7.59-.32-11.37-.54m-75.88-2.49c11.1,1.91,22.27,3.43,33.49,4.47,9.4.87,19,1.61,28.48,1.61q5.1,0,10.17-.31l-10-2.71c-6.7,0-13.4-.43-20-.89s-13.34-1.12-20-1.93q-11-.18-22.1-.24m-1.67-3.33-.36.08-1.23.23,3.45,0-.49-.08-1.37-.25m-38.1-8.17c-3.09.19-6.18.44-9.27.73,10.19,2.66,20.43,5.11,30.74,7.27q4.26-.6,8.49-1.34-15.07-2.93-30-6.66m-20.5-5.42c-1.81.57-3.64,1.1-5.5,1.57,2.88.82,5.76,1.63,8.65,2.41,2.79-.31,5.57-.6,8.37-.86q-5.78-1.52-11.52-3.12M267.38,86l-5.58,1.47c2.65.8,5.3,1.58,8,2.36,2-.44,3.93-.91,5.89-1.43q-4.14-1.19-8.27-2.4m-23.87-4.16c2.33.74,4.66,1.46,7,2.18l5.87,1.81,5.05-1.36c-3.42-.37-6.84-.81-10.24-1.33q-3.84-.59-7.67-1.3M230,74.36c.49.62,1,1.23,1.49,1.84q6.44,1.58,13,2.77Q237.17,76.7,230,74.36m-12.8-4.22c-.62.51-1.24,1-1.87,1.5l0,0q5.63,1.8,11.33,3.32l-1.76-2.28L218,70.41l-.82-.27m-17-6q2.79,1.22,5.53,2.52c2.28,1.08,4.52,2.22,6.73,3.39l.18-.13,1.2-.93c-4.56-1.55-9.12-3.15-13.64-4.85" transform="translate(12.23 10.86)"/><path class="cls-7" d="M331.54,102q-4.23.73-8.49,1.34l2.24.47h3.78l9,0,1.23-.23.36-.08q-4.08-.72-8.14-1.51M215.29,71.64h0l0,0,0,0m-26.42-12-1.23,1.08q2.09,1,4.18,1.91,9.83,4.4,20.05,7.86l.57-.44c-2.21-1.17-4.45-2.31-6.73-3.39q-2.75-1.31-5.53-2.52-5.7-2.13-11.31-4.5" transform="translate(12.23 10.86)"/><path class="cls-7" d="M231.45,76.2c.68.83,1.37,1.65,2.06,2.47q5,1.59,10,3.16,3.83.72,7.67,1.3c3.4.52,6.82,1,10.24,1.33l.43-.12-3.7-1.11q-6.88-2.1-13.75-4.26-6.51-1.2-13-2.77m-16.13-4.54c1.46.81,2.9,1.64,4.34,2.49,2.85.95,5.7,1.88,8.56,2.81l-1.57-2q-5.7-1.52-11.33-3.32M187,62.12q6,2.57,12.14,4.85-6-2.62-12.14-4.85" transform="translate(12.23 10.86)"/><path class="cls-7" d="M215.29,71.64l-.93.72,5.3,1.79c-1.44-.85-2.88-1.68-4.34-2.49l0,0M187.64,60.75l-1.25,1.11.61.26q6.15,2.22,12.14,4.85c3.92,1.47,7.86,2.87,11.81,4.23l.92-.68q-10.22-3.47-20.05-7.86-2.1-.93-4.18-1.91" transform="translate(12.23 10.86)"/><path class="cls-7" d="M517,55.26l-.33,0a364.37,364.37,0,0,1-70.5,6.88q-14.91,0-29.79-1.22-6.3-.51-12.57-1.25a1.36,1.36,0,0,1-.92,2c-.87.18-1.74.36-2.6.56,1.66.21,3.33.41,5,.59a366.1,366.1,0,0,0,40.94,2.3,368,368,0,0,0,59-4.77q6.13-1,12.24-2.22c1.78-.35,1.18-2.92-.47-2.92M355.28,50.61c-1.43.64-2.85,1.31-4.26,2,1.65.44,3.29.87,4.94,1.29a367.8,367.8,0,0,0,36.13,7.26c2.65-.68,5.31-1.32,8-1.9q-16.77-2.14-33.31-5.86c-3.84-.86-7.67-1.8-11.48-2.78m-152.6-1.79q-4.73,1.41-9.35,3.09c-1.49,1.17-3,2.37-4.4,3.61-1.07.92-2.14,1.86-3.19,2.8l2.58,1.12.57.21a144.26,144.26,0,0,1,13.79-10.83m1.8-4.63c-1,.59-2,1.2-2.93,1.83,1.18-.35,2.35-.69,3.53-1l-.6-.81M214.8,38.8q-4,1.77-7.76,3.9l1.1,1.47c1.4-.36,2.8-.71,4.21-1.05,1.06-.53,2.13-1,3.23-1.51s2.27-1,3.41-1.41l-4.19-1.4m85-.09h-.27c2.73.61,5.43,1.26,8.1,1.93,13.13,3.3,26.09,7.25,39.14,10.82,1.34-.7,2.69-1.37,4.05-2-10.85-2.9-21.62-6.11-32.46-9.07-2-.56-4.06-1.1-6.11-1.63H299.79m-42-8.2a116.55,116.55,0,0,0-30.53,3.85Q223,35.52,219,37.05l4.53,1.52a108.66,108.66,0,0,1,34.06-5.09A169.66,169.66,0,0,1,284,35.71q7-.1,14.11-.1h1.19c-13.66-3-27.59-5.1-41.49-5.1" transform="translate(12.23 10.86)"/><path class="cls-7" d="M188.32,59.44l.55.23,0,0-.57-.21" transform="translate(12.23 10.86)"/><path class="cls-7" d="M400.07,59.25c-2.67.58-5.33,1.22-8,1.9,2.72.41,5.43.78,8.16,1.13.86-.2,1.73-.38,2.6-.56a1.36,1.36,0,0,0,.92-2c-1.24-.14-2.47-.3-3.7-.45" transform="translate(12.23 10.86)"/><path class="cls-7" d="M91.1,83.48c3.34,2.81,6.7,5.58,10.12,8.29l1,.48A57.65,57.65,0,0,0,121,97.46c1.12.09,2.24.13,3.36.13a49.69,49.69,0,0,0,16-2.79c-2.65-.33-5.29-.72-7.92-1.14a46.42,46.42,0,0,1-8.41.79,42.76,42.76,0,0,1-12.19-1.77c-6.95-2.06-13.35-5.38-19.69-8.86l-1.09-.34M77.36,79.3c3.88,1.86,7.65,4,11.43,6l-4.77-4q-3.31-1-6.66-2m-12.73-8a1.43,1.43,0,0,0-1.32,1q4.86,1.2,9.68,2.58c-1.11-.66-2.2-1.34-3.28-2.05q-2.29-.79-4.66-1.43a1.52,1.52,0,0,0-.42-.06m117.62-9.86c-9.1,8.33-17.94,17-28.46,23.55a73.87,73.87,0,0,1-8.11,4.37c1.82.28,3.66.48,5.5.61,12.75-7,23.19-17.32,34-27.09q-1.49-.7-3-1.44" transform="translate(12.23 10.86)"/><path class="cls-7" d="M183.05,60.74l-.8.73q1.49.73,3,1.44l1.14-1c-1.1-.39-2.2-.78-3.31-1.15" transform="translate(12.23 10.86)"/><path class="cls-7" d="M183.31,60.51l-.26.23c1.11.37,2.21.76,3.31,1.15l0,0c-1-.44-2.06-.89-3.08-1.35" transform="translate(12.23 10.86)"/><path class="cls-7" d="M185.74,58.32l-.17.15c.92.31,1.84.64,2.75,1l-2.58-1.12" transform="translate(12.23 10.86)"/><path class="cls-7" d="M185.57,58.47l-.93.84,3,1.44,1.23-1.08-.55-.23c-.91-.33-1.83-.66-2.75-1" transform="translate(12.23 10.86)"/><path class="cls-7" d="M184.64,59.31l-1.33,1.2c1,.46,2.05.91,3.08,1.35l1.25-1.11-3-1.44" transform="translate(12.23 10.86)"/><path class="cls-7" d="M124.67,81.16l-.93.2c1.05.66,2.13,1.29,3.22,1.88-.77-.68-1.54-1.38-2.29-2.08M83,76.62l2.23,1.9c7.75,2.39,15.48,4.83,23.24,7,1,0,2,.06,3,.06a69.75,69.75,0,0,0,11.71-1c-1.06-.64-2.1-1.31-3.13-2l-.62-.43a59.22,59.22,0,0,1-8,.54h-.77a72.19,72.19,0,0,1-27.61-6M48.94,52.72A78.44,78.44,0,0,0,61,66.14a76.22,76.22,0,0,0,8.74,6.68q2.37.84,4.68,1.82c1.27.54,2.52,1.11,3.77,1.71Q73.8,72.66,69.4,69a72.43,72.43,0,0,1-8-6.56c-4.08-3.3-8.23-6.56-12.45-9.71m-8.82-24L37.38,30a91.15,91.15,0,0,0,7.11,15.76c2.29,1.63,4.56,3.3,6.82,5A86.93,86.93,0,0,1,40.12,28.67m-6.24-38a1.53,1.53,0,0,0-1.59,1.45,99.39,99.39,0,0,0,4.16,35l2.74-1.33A94.58,94.58,0,0,1,35.17,2c-.13-3.32-.08-6.65.12-10a1.32,1.32,0,0,0-1.41-1.45" transform="translate(12.23 10.86)"/><path class="cls-7" d="M39.19,25.79l-2.74,1.33c.29,1,.61,1.93.93,2.88l2.74-1.33q-.49-1.44-.93-2.88" transform="translate(12.23 10.86)"/><path class="cls-7" d="M69.71,72.82c1.08.71,2.17,1.39,3.28,2.05,1.74.49,3.48,1,5.21,1.51l0,0c-1.25-.6-2.5-1.17-3.77-1.71q-2.31-1-4.68-1.82" transform="translate(12.23 10.86)"/><path class="cls-7" d="M221.74,41.12c-3.15.6-6.28,1.26-9.39,2-1.21.61-2.41,1.25-3.59,1.91L210,46.78c2.65-.68,5.33-1.3,8-1.86,3.19-.68,6.38-1.28,9.59-1.82l-5.9-2m23.78-.4v0h0v0M244,37.92q-5.29.55-10.58,1.29c-1.82.25-3.64.53-5.46.82l6.19,2.07q3.52-.49,7.07-.9L244,37.92m40-2.21c-12.28.2-24.55.72-36.75,1.88.49,1,1,1.9,1.53,2.84,16.84-1.51,33.83-1.72,50.73-1.72-5.11-1.15-10.29-2.17-15.51-3m15.3-.1c4.34,1,8.65,2,12.93,3.12,20.65.06,41.34.33,62,1.52q4.28-1.32,8.61-2.42c-18.88-1.34-37.83-1.85-56.75-2-8.89-.08-17.82-.19-26.75-.2" transform="translate(12.23 10.86)"/><path class="cls-7" d="M212.35,43.12c-1.41.34-2.81.69-4.21,1.05l.62.86c1.18-.66,2.38-1.3,3.59-1.91m85.77-7.51q-7.06,0-14.11.1c5.22.83,10.4,1.85,15.51,3h12.72c-4.28-1.11-8.59-2.16-12.93-3.12h-1.19" transform="translate(12.23 10.86)"/><path class="cls-7" d="M173,57.64c-.87.46-1.73.93-2.59,1.4-6.56,3.63-12.89,7.64-19.4,11.34a100.18,100.18,0,0,1-22.89,9.92c.92.83,1.85,1.65,2.81,2.45q2.45-.72,4.84-1.64c14-5.35,26.21-14.32,39.44-21.25l1.93-1-.08,0c-1.35-.41-2.7-.81-4.06-1.19m33.19-11.1c-1.2.73-2.37,1.49-3.53,2.28,1.43-.43,2.85-.84,4.29-1.23l-.76-1.05M201.55,46q-5.72,1.73-11.32,3.85-6,2.28-11.82,5.06l2.68,1.28.82.38c3.74-1.72,7.55-3.27,11.42-4.68q4-3.13,8.22-5.89m191.28-7.4q-4.89,1-9.71,2.21c9.92.7,19.83,1.65,29.71,2.91q6.48.82,12.93,1.85l.26,0c1.7,0,2.35-2.63.53-2.92-11.19-1.76-22.44-3.08-33.72-4.07" transform="translate(12.23 10.86)"/><path class="cls-7" d="M174,57.15l-.94.49c1.36.38,2.71.78,4.06,1.19Q175.52,58,174,57.15" transform="translate(12.23 10.86)"/><path class="cls-7" d="M177.08,58.83l.08,0h0l-.1,0" transform="translate(12.23 10.86)"/><path class="cls-7" d="M175,56.6l-1.07.55q1.56.85,3.12,1.68l.1,0,1.23-.61c-.95-.45-1.9-.92-2.84-1.38L175,56.6" transform="translate(12.23 10.86)"/><path class="cls-7" d="M178.41,54.93l-1.19.58,1.15.61,2.71.85.83-.38-.82-.38-2.68-1.28" transform="translate(12.23 10.86)"/><path class="cls-7" d="M178.37,56.12l2.14,1.12.57-.27-2.71-.85" transform="translate(12.23 10.86)"/><path class="cls-7" d="M177.22,55.51l-.33.16,1.48.45-1.15-.61" transform="translate(12.23 10.86)"/><path class="cls-7" d="M176.89,55.67,175,56.6l.54.27c.94.46,1.89.93,2.84,1.38l2.1-1-2.14-1.12-1.48-.45" transform="translate(12.23 10.86)"/><path class="cls-7" d="M205.08,45c-1.18.33-2.35.67-3.53,1q-4.22,2.74-8.22,5.89,4.62-1.68,9.35-3.09c1.16-.79,2.33-1.55,3.53-2.28L205.08,45" transform="translate(12.23 10.86)"/><path class="cls-7" d="M194.78,32.09c3.43,3.88,6.62,7.94,9.7,12.1.85-.51,1.7-1,2.56-1.49-2.23-3-4.52-6-6.9-8.81l-5.36-1.8M100.87-10.86c-1.78,0-1.73,2.85.14,3a193.22,193.22,0,0,1,36,6.38A146.52,146.52,0,0,1,169,11.1a94.88,94.88,0,0,1,21.51,16.39l5.81,2a99.41,99.41,0,0,0-20.55-17.81A131.79,131.79,0,0,0,145.16-2.16,195.47,195.47,0,0,0,109.79-10q-4.38-.54-8.78-.9h-.14" transform="translate(12.23 10.86)"/><path class="cls-7" d="M207,42.7c-.86.48-1.71,1-2.56,1.49l.6.81c1-.29,2-.56,3.06-.83L207,42.7" transform="translate(12.23 10.86)"/><path class="cls-7" d="M246.45,91.69l-.12,0,.61.38-.49-.42M229.76,78.85l.61.73c.89,1.06,1.8,2.12,2.72,3.15Q235,84,236.78,85.28c2.06,1.44,4.13,2.88,6.22,4.28l.79-.23a118.24,118.24,0,0,1-8.6-8.74l-.51-.57q-2.46-.55-4.92-1.17M223,65.09c-.74.68-1.48,1.35-2.23,2q2,2.82,4.15,5.6L230,74.36c-2.41-3-4.73-6.13-7-9.27M210,46.78c-1,.26-2,.53-3.07.81q2.68,3.75,5.32,7.53c2.23,3.19,4.45,6.4,6.72,9.57.75-.66,1.49-1.34,2.23-2-1.47-2.06-2.92-4.14-4.37-6.22-2.26-3.23-4.52-6.47-6.83-9.67" transform="translate(12.23 10.86)"/><path class="cls-7" d="M246.33,91.73l-3.29.94.84.74c1.4-.1,2.8-.22,4.2-.34l-1.14-1-.61-.38m-13.24-9q3.53,3.94,7.36,7.56l2.55-.73c-2.09-1.4-4.16-2.84-6.22-4.28Q235,84,233.09,82.73" transform="translate(12.23 10.86)"/><path class="cls-7" d="M228.22,77c.51.64,1,1.27,1.54,1.89q2.46.62,4.92,1.17l-1.17-1.35L228.22,77" transform="translate(12.23 10.86)"/><path class="cls-7" d="M224.89,72.7,226.65,75c1.59.42,3.2.83,4.8,1.22-.5-.61-1-1.22-1.49-1.84l-5.07-1.66" transform="translate(12.23 10.86)"/><path class="cls-7" d="M226.65,75l1.57,2,5.29,1.71c-.69-.82-1.38-1.64-2.06-2.47-1.6-.39-3.21-.8-4.8-1.22" transform="translate(12.23 10.86)"/><path class="cls-7" d="M247.76,96l-.73.06q1.54,1.26,3.12,2.46l1.68-.24q-2.06-1.1-4.07-2.28" transform="translate(12.23 10.86)"/><path class="cls-7" d="M251.34,95.67c-1.19.13-2.38.24-3.58.34q2,1.18,4.07,2.28l2.53-.36c-1-.74-2-1.49-3-2.26" transform="translate(12.23 10.86)"/><path class="cls-7" d="M270.24,107.63l-6,.17a143.32,143.32,0,0,0,46.44,16.31,171.87,171.87,0,0,0,28.81,2.37,210,210,0,0,0,43.42-4.73c3-.62,5.95-1.31,8.9-2,1.74-.43,1.19-3-.39-3a1.44,1.44,0,0,0-.4.06,214.12,214.12,0,0,1-51.61,6.69,173,173,0,0,1-21-1.26,143.86,143.86,0,0,1-48.22-14.61m-13.7-7-3,.43q2.9,2,5.89,3.92l5.55-.18c-1.25-.72-2.5-1.46-3.72-2.22q-2.43-.9-4.75-2" transform="translate(12.23 10.86)"/><path class="cls-7" d="M257.94,100.41l-1.4.2q2.32,1,4.75,2c-.86-.53-1.7-1.07-2.54-1.62l-.81-.53" transform="translate(12.23 10.86)"/><path class="cls-7" d="M208.76,45c-.86.49-1.71,1-2.55,1.51l.76,1.05c1-.28,2-.55,3.07-.81L208.76,45" transform="translate(12.23 10.86)"/><path class="cls-7" d="M208.14,44.17c-1,.27-2,.54-3.06.83l1.13,1.54c.84-.52,1.69-1,2.55-1.51l-.62-.86" transform="translate(12.23 10.86)"/><path class="cls-7" d="M269.76,89.82A177.1,177.1,0,0,1,248.44,93c1.35.82,2.71,1.61,4.1,2.35l.25.14a163.79,163.79,0,0,0,22.64-4l.15,0-5.82-1.67m22.55-4q-2.76.06-5.52.06H284.1c-2.79,1-5.61,1.81-8.45,2.57q2.72.78,5.43,1.53,5.73-1.8,11.23-4.15m18.83-9.61q-4.65.86-9.29,1.79c-2.94,1.57-5.92,3-9,4.41l.75.4q2.88-.09,5.76-.25c4-2,7.9-4.09,11.75-6.35m-.24-3.35-.86.52,1.39-.26-.53-.26m35.86-21.35c-8.22,4.23-16.11,9-24,14-2.91,1.83-5.83,3.67-8.77,5.46l2.53,1.25,1.6-.27c9.93-6.16,19.69-12.62,30.12-17.93L351,52.6l-4.26-1.14M374.2,40.25q-7.89,2.45-15.54,5.64c-2.66,1.11-5.27,2.29-7.85,3.54l4.47,1.18a170.26,170.26,0,0,1,27.84-9.78q-4.46-.33-8.92-.58m52.13-7.89a176.37,176.37,0,0,0-43.52,5.47c3.34.23,6.68.5,10,.79a172.81,172.81,0,0,1,33.42-3.27l2.88,0q5.24.09,10.46.5h.14c1.79,0,1.73-2.86-.14-3-4.41-.34-8.84-.51-13.26-.51" transform="translate(12.23 10.86)"/><path class="cls-7" d="M248.44,93l-.36,0c1.07.88,2.16,1.75,3.26,2.6l1.45-.15-.25-.14c-1.39-.74-2.75-1.53-4.1-2.35" transform="translate(12.23 10.86)"/><path class="cls-7" d="M289.4,83.83c-1,.41-2,.81-3.07,1.19l-2.23.8h2.69q2.76,0,5.52-.06l.35-.16c-1.09-.58-2.18-1.17-3.26-1.78m10-1.32q-2.88.17-5.76.25l2.52,1.3c1.09-.5,2.17-1,3.24-1.55" transform="translate(12.23 10.86)"/><path class="cls-7" d="M275.65,88.39c-2,.52-3.92,1-5.89,1.43l5.82,1.67c1.86-.47,3.69-1,5.5-1.57q-2.71-.75-5.43-1.53" transform="translate(12.23 10.86)"/><path class="cls-7" d="M350.81,49.43c-1.36.66-2.71,1.33-4.05,2L351,52.6c1.41-.68,2.83-1.35,4.26-2l-4.47-1.18" transform="translate(12.23 10.86)"/><path class="cls-7" d="M243.58,93.43c-1.38.1-2.75.19-4.13.27q-5.76,1.67-11.51,3.37c1.86,0,3.73-.12,5.59-.19,4.5-.18,9-.43,13.5-.81-.75-.61-1.49-1.23-2.23-1.86l-1.22-.78m-97.46-.9-.57.25c2.23,1.21,4.49,2.29,6.79,3.27,12.38,1,24.81,1.34,37.23,1.38l8.82,0q9.12,0,18.22-.12,5.26-1.59,10.53-3.15c-8.77.21-17.54.17-26.19.23l-7.53,0c-12.84,0-25.69-.25-38.46-1.23a72.29,72.29,0,0,1-8.84-.67" transform="translate(12.23 10.86)"/><path class="cls-7" d="M243.88,93.41l-.3,0,1.22.78-.92-.8" transform="translate(12.23 10.86)"/><path class="cls-7" d="M144.7,92.31l.85.47.57-.25-1.42-.22" transform="translate(12.23 10.86)"/><path class="cls-7" d="M382.81,37.83q-4.33,1.1-8.61,2.42,4.47.26,8.92.58,4.81-1.24,9.71-2.21c-3.34-.29-6.68-.56-10-.79" transform="translate(12.23 10.86)"/><path class="cls-7" d="M244.8,94.21c.74.63,1.48,1.25,2.23,1.86l.73-.06c-1-.59-2-1.19-3-1.8" transform="translate(12.23 10.86)"/><path class="cls-7" d="M248.08,93.07c-1.4.12-2.8.24-4.2.34l.92.8c1,.61,2,1.21,3,1.8,1.2-.1,2.39-.21,3.58-.34-1.1-.85-2.19-1.72-3.26-2.6" transform="translate(12.23 10.86)"/><path class="cls-7" d="M142.07,94.2c-.55.21-1.11.41-1.67.6,1.15.15,2.31.29,3.47.42q-.9-.5-1.8-1m-52.51-12,.63.53,2,1.11c3.26,1,6.52,2,9.77,2.93a258.8,258.8,0,0,0,30.52,6.91,53,53,0,0,0,6.17-1.55c-.39-.25-.79-.5-1.17-.76a222.78,222.78,0,0,1-25.86-5l-3.13-.83a74.87,74.87,0,0,1-18.93-3.29M30.15,67.77h-.29a95,95,0,0,0-10.53.62c-1.83.21-1.91,3-.19,3h.19A95.2,95.2,0,0,1,30,70.8c16.12,0,31.87,3.9,47.4,8.5a74.28,74.28,0,0,0-13.1-5,1.43,1.43,0,0,1-1-2,138.66,138.66,0,0,0-33.16-4.52" transform="translate(12.23 10.86)"/><path class="cls-7" d="M138.65,92.11a53,53,0,0,1-6.17,1.55c2.63.42,5.27.81,7.92,1.14.56-.19,1.12-.39,1.67-.6-1.15-.67-2.3-1.36-3.42-2.09m-48.46-9.4.91.77,1.09.34-2-1.11M63.31,72.29a1.43,1.43,0,0,0,1,2,74.28,74.28,0,0,1,13.1,5q3.35,1,6.66,2l-2.46-2.09A77.44,77.44,0,0,1,73,74.87q-4.83-1.38-9.68-2.58" transform="translate(12.23 10.86)"/><path class="cls-7" d="M85.25,78.52c1.43,1.22,2.87,2.45,4.31,3.66a74.87,74.87,0,0,0,18.93,3.29c-7.76-2.12-15.49-4.56-23.24-7" transform="translate(12.23 10.86)"/><path class="cls-7" d="M73,74.87a77.44,77.44,0,0,0,8.57,4.35L78.2,76.38c-1.73-.51-3.47-1-5.21-1.51" transform="translate(12.23 10.86)"/><path class="cls-7" d="M104,49.57l-1.81.07c.17,1.33.4,2.65.7,4a128.42,128.42,0,0,0,21.83,27.57c1.17-.26,2.32-.54,3.47-.86C118.46,71.53,110.57,61,104,49.57m-2.11-3.71c0,.26,0,.53,0,.79l.39,0-.43-.77M90.21,21.32c-1,.16-2,.35-3,.55A258.29,258.29,0,0,0,98.89,46.68a42.82,42.82,0,0,1,.14-6.1c-3-5.91-5.76-11.94-8.29-18-.18-.42-.36-.85-.53-1.28m-3-7.48c-1,.08-2,.19-3.08.31.64,1.63,1.29,3.27,1.95,4.9,1-.21,2-.4,3-.58-.62-1.54-1.23-3.09-1.84-4.63" transform="translate(12.23 10.86)"/><path class="cls-7" d="M102.27,46.63l-.39,0c.05,1,.13,2,.26,3l1.81-.07q-.86-1.45-1.68-2.94" transform="translate(12.23 10.86)"/><path class="cls-7" d="M89,18.47c-1,.18-2,.37-3,.58.38.94.76,1.88,1.15,2.82,1-.2,2-.39,3-.55-.4-.95-.78-1.9-1.17-2.85" transform="translate(12.23 10.86)"/><path class="cls-7" d="M85,11.12c-.93,0-1.82.71-1.4,1.8.16.42.32.82.48,1.23,1-.12,2-.23,3.08-.31l-.67-1.71a1.54,1.54,0,0,0-1.49-1" transform="translate(12.23 10.86)"/><path class="cls-7" d="M135.82,90.22c.55.39,1.1.76,1.66,1.13l2.49.33.53-.19c-1.57-.36-3.14-.78-4.68-1.27M131,82.75c-1.09.32-2.17.61-3.27.87a55.38,55.38,0,0,0,9.3,3.8q-3.12-2.22-6-4.67" transform="translate(12.23 10.86)"/><path class="cls-7" d="M140.5,91.49l-.53.19c1.16.15,2.32.29,3.49.42-1-.18-2-.38-3-.61" transform="translate(12.23 10.86)"/><path class="cls-7" d="M128.14,80.3c-1.15.32-2.3.6-3.47.86.75.7,1.52,1.4,2.29,2.08l.57.3.15.08c1.1-.26,2.18-.55,3.27-.87-1-.8-1.89-1.62-2.81-2.45" transform="translate(12.23 10.86)"/><path class="cls-7" d="M422.06,111.77c-1.55.21-3.1.39-4.65.53-1.3.12-2.61.23-3.92.31,24.66,6.61,49.65,12.71,75.28,13.11l2.49,0q4.22,0,8.45-.21c1.89-.1,1.93-3,.09-3h-.09c-2.67.13-5.35.19-8,.19-23.61,0-46.82-5-69.64-11m-26.18-3.9,5,1.34,2.55.69h.75c3.23,0,6.45-.09,9.65-.31l-1.46-.39-1-.26-4.44-.34c-2.4-.19-4.82-.39-7.23-.62l-3.88-.12M389.24,103c-1.49.08-3,.16-4.48.22,3.48.54,7,1,10.5,1.36l-6-1.58m-23.1-5.53-2.88.71q3.81,1.32,7.74,2.32h2.21c2,0,4,0,5.93-.07-4.32-1-8.65-2-13-3m-9.69-1.91,1.81.75,1-.24-2.8-.51M284.23,93.9c-9.12,1-18.21,2.34-27.3,3.66,1.79.81,3.62,1.54,5.47,2.21,10-1.42,19.91-2.77,29.91-3.7-2.69-.71-5.39-1.43-8.08-2.17m22.51-1.85c-4.72.21-9.44.55-14.14,1,3,.78,6,1.55,9,2.3q4.69-.3,9.42-.44,1.74,0,3.48-.06-3.9-1.29-7.74-2.79m10.45-.24h-2.32q5.52,1.84,11.17,3.28a236,236,0,0,1,25.48,2.81l1.62-.37-1-.49c-2-1-3.95-2-5.87-3.13C339.53,93,332.77,92.29,326,92q-4.4-.19-8.77-.19" transform="translate(12.23 10.86)"/><path class="cls-7" d="M256.93,97.56l-2.57.37c1.18.85,2.37,1.67,3.58,2.48l4.46-.64c-1.85-.67-3.68-1.4-5.47-2.21m96.21,0-1.62.37c1.33.22,2.65.44,4,.68-.79-.34-1.57-.69-2.35-1m6.11-1.46-1,.24c1.65.67,3.31,1.3,5,1.87l2.88-.71q-3.43-.74-6.89-1.4" transform="translate(12.23 10.86)"/><path class="cls-7" d="M413.86,109.6c-3.2.22-6.42.31-9.65.31h-.75l10,2.71c1.31-.08,2.62-.19,3.92-.31,1.55-.14,3.1-.32,4.65-.53-2.74-.71-5.47-1.44-8.2-2.17M292.6,93c-2.8.26-5.58.55-8.37.86,2.69.74,5.39,1.46,8.08,2.17,3.09-.29,6.18-.54,9.27-.73-3-.75-6-1.52-9-2.3" transform="translate(12.23 10.86)"/><path class="cls-7" d="M250.15,98.53c-6.37.91-12.75,1.79-19.12,2.56-7.79.93-15.82,1.78-23.89,2.23l-10.73,3.24c6.06,0,12.12-.37,18.12-.83,13.07-1,26.06-2.82,39-4.69l-.64-.46c-.94-.67-1.87-1.35-2.78-2M143.87,95.22A85.48,85.48,0,0,0,167.53,104a124.22,124.22,0,0,0,19.13,2.36l1.86-.56,7.13-2.14h0c-14.91,0-29.7-1.87-43.27-7.61-2.58-.22-5.15-.46-7.73-.75l-.74-.08" transform="translate(12.23 10.86)"/><path class="cls-7" d="M251.83,98.29l-1.68.24c.91.7,1.84,1.38,2.78,2l.64.46,3-.43c-1.6-.72-3.17-1.5-4.71-2.32" transform="translate(12.23 10.86)"/><path class="cls-7" d="M254.36,97.93l-2.53.36c1.54.82,3.11,1.6,4.71,2.32l1.4-.2c-1.21-.81-2.4-1.63-3.58-2.48" transform="translate(12.23 10.86)"/><path class="cls-7" d="M145.55,92.78q-1.58.7-3.21,1.32l-.27.1q.9.52,1.8,1l.74.08c2.58.29,5.15.53,7.73.75-2.3-1-4.56-2.06-6.79-3.27m-8.07-1.43c.38.26.78.51,1.17.76l1.32-.43-2.49-.33" transform="translate(12.23 10.86)"/><path class="cls-7" d="M140,91.68l-1.32.43c1.12.73,2.27,1.42,3.42,2.09l.27-.1q1.64-.61,3.21-1.32l-.85-.47c-.42-.06-.83-.13-1.24-.21-1.17-.13-2.33-.27-3.49-.42" transform="translate(12.23 10.86)"/><path class="cls-7" d="M373.18,66.6c-11.11.19-22.21,1-33.27,2.23Q329,70.09,318.15,71.9l-1,.6c1.26.64,2.51,1.29,3.74,2q3.48-.55,7-1.07c11.44-1.66,23-2.85,34.55-3.45l10.73-3.34m10.5,0q-4.87,1.44-9.73,3c1.61,0,3.22,0,4.83,0,9.24,0,18.49.42,27.69,1.33q4.95.5,9.88,1.17l.23,0c1.72,0,2.39-2.66.56-2.91a277.68,277.68,0,0,0-33.46-2.54" transform="translate(12.23 10.86)"/><path class="cls-7" d="M378.63,66.55c-1.82,0-3.64,0-5.45,0l-10.73,3.34c3.83-.19,7.67-.32,11.5-.38q4.86-1.53,9.73-3c-1.68,0-3.37,0-5.05,0" transform="translate(12.23 10.86)"/><path class="cls-7" d="M318.15,71.9l-1.6.27.64.33,1-.6" transform="translate(12.23 10.86)"/><path class="cls-7" d="M186.66,106.36l-10.58,3.21c4.71-.37,9.42-.78,14.11-1.14l6.22-1.87h-1.34q-4.22,0-8.41-.21m41.28-9.29c-3.77.12-7.55.2-11.33.26q-10.49,3.15-21,6.33c3.83,0,7.67-.13,11.49-.34q10.4-3.15,20.8-6.25m11.36-6.45q-6.09,1.75-12.16,3.56c4.11-.1,8.21-.25,12.31-.48l3.14-.9-3.29-2.18m17.07-4.8c-4.2,1.14-8.39,2.32-12.58,3.51.88.8,1.77,1.59,2.66,2.36L251,90.42q5.4-1.5,10.83-3l-5.43-1.64m6.31-1.23,4.7,1.4,2.88-.74q-3.79-.27-7.58-.66m19.24-5.31q-6,1.43-12,3c3.45.25,6.89.43,10.34.52q2.61-.63,5.22-1.23c-1.19-.73-2.38-1.48-3.55-2.25" transform="translate(12.23 10.86)"/><path class="cls-7" d="M240.45,90.29l-1.15.33,3.29,2.18.45-.13c-.88-.78-1.74-1.58-2.59-2.38" transform="translate(12.23 10.86)"/><path class="cls-7" d="M269.91,82.24q-3.12.8-6.23,1.62l-1.83.48.83.25q3.78.39,7.58.66,5-1.27,10-2.49c-3.45-.09-6.89-.27-10.34-.52" transform="translate(12.23 10.86)"/><path class="cls-7" d="M261.42,84.46l-5.05,1.36,5.43,1.64L267.38,86l-4.7-1.4-1.26-.13" transform="translate(12.23 10.86)"/><path class="cls-7" d="M261.85,84.34l-.43.12,1.26.13-.83-.25" transform="translate(12.23 10.86)"/><path class="cls-7" d="M243.79,89.33l-.79.23c1.1.73,2.21,1.46,3.33,2.17l.12,0c-.89-.77-1.78-1.56-2.66-2.36" transform="translate(12.23 10.86)"/><path class="cls-7" d="M243,89.56l-2.55.73c.85.8,1.71,1.6,2.59,2.38l3.29-.94c-1.12-.71-2.23-1.44-3.33-2.17" transform="translate(12.23 10.86)"/><path class="cls-7" d="M239.45,93.7c-4.1.23-8.2.38-12.31.48q-5.26,1.56-10.53,3.15c3.78-.06,7.56-.14,11.33-.26q5.75-1.69,11.51-3.37" transform="translate(12.23 10.86)"/><path class="cls-7" d="M207.14,103.32c-3.82.21-7.66.34-11.49.34l-7.13,2.14-1.86.56q4.2.21,8.41.21h1.34l10.73-3.24" transform="translate(12.23 10.86)"/><path class="cls-7" d="M46.4,87.27a1.64,1.64,0,0,0-1.15,2.63c7.4,9.24,15,18,25.47,23.92a83.19,83.19,0,0,0,30.92,9.76,102.2,102.2,0,0,0,12.7.76c20.8,0,41.37-5.74,61.21-11.56l1.56-.46c-4.58.36-9.18.72-13.78,1-16.06,4.49-32.41,8-49,8h-1.52a89.72,89.72,0,0,1-32.31-6.12c-10.9-4.39-19.76-11.48-27.34-20.37-2-2.31-3.87-4.69-5.77-7.06a1.24,1.24,0,0,0-1-.51M314.09,74.4l-1.11.67-1.84,1.09c1.57-.29,3.14-.57,4.72-.84l-1.77-.92m-4-1.07q-12.1,2.23-24.09,5c1.23.76,2.47,1.51,3.72,2.22q6.07-1.36,12.18-2.61c2.77-1.47,5.49-3,8.19-4.62" transform="translate(12.23 10.86)"/><path class="cls-7" d="M311.43,73.07l-1.39.26c-2.7,1.6-5.42,3.15-8.19,4.62q4.63-.93,9.29-1.79L313,75.07l1.11-.67-2.66-1.33" transform="translate(12.23 10.86)"/><path class="cls-7" d="M88.79,85.32q3.69,3.12,7.42,6.19a133.24,133.24,0,0,0,18.23,13.18,64.57,64.57,0,0,0,21.05,7.53,103.81,103.81,0,0,0,17.68,1.37c3.38,0,6.77-.12,10.16-.3,4.27-1.19,8.52-2.45,12.75-3.72-7.32.56-14.65,1-22,1q-3.41,0-6.79-.15a74,74,0,0,1-22.88-4.29c-7.23-2.73-13.76-7.07-19.86-11.76-1.13-.87-2.25-1.75-3.37-2.63-4.23-2-8.34-4.19-12.43-6.45M51.31,50.75A77.85,77.85,0,0,0,61.39,62.43L63,63.72Q66.2,66.33,69.4,69c1.15.82,2.33,1.6,3.54,2.36A76,76,0,0,0,83,76.62C79,73.15,74.9,69.68,70.79,66.27c-3-2.46-6-4.91-9-7.34l-.59.42a1.37,1.37,0,0,1-.79.27,1.6,1.6,0,0,1-1-2.6q-4-3.18-8.11-6.27M-10.81,18a1.51,1.51,0,0,0-.37,2.95C11,27.15,30.65,39,48.94,52.72q-2.4-3.37-4.45-7C30.59,35.86,15.88,27.19-.22,21.31-3.56,20.08-6.95,19-10.38,18a1.71,1.71,0,0,0-.43-.06" transform="translate(12.23 10.86)"/><path class="cls-7" d="M59.42,57a1.6,1.6,0,0,0,1,2.6,1.37,1.37,0,0,0,.79-.27l.59-.42L59.42,57" transform="translate(12.23 10.86)"/><path class="cls-7" d="M84,81.31l4.77,4c4.09,2.26,8.2,4.5,12.43,6.45-3.42-2.71-6.78-5.48-10.12-8.29L84,81.31" transform="translate(12.23 10.86)"/><path class="cls-7" d="M69.4,69q4.39,3.66,8.76,7.36l.12.06c2.32.69,4.65,1.4,7,2.11L83,76.62a76,76,0,0,1-10.08-5.27c-1.21-.76-2.39-1.54-3.54-2.36M44.49,45.76q2.05,3.59,4.45,7c4.22,3.15,8.37,6.41,12.45,9.71A77.85,77.85,0,0,1,51.31,50.75c-2.26-1.69-4.53-3.36-6.82-5" transform="translate(12.23 10.86)"/><path class="cls-7" d="M78.16,76.35l0,0,.08,0-.12-.06" transform="translate(12.23 10.86)"/><path class="cls-7" d="M88.79,81.94l1.4.77-.63-.53-.77-.24" transform="translate(12.23 10.86)"/><path class="cls-7" d="M81.56,79.22,84,81.31l7.08,2.17-.91-.77-1.4-.77a74.92,74.92,0,0,1-7.23-2.72" transform="translate(12.23 10.86)"/><path class="cls-7" d="M78.28,76.41c3.56,1.71,7,3.61,10.51,5.53l.77.24c-1.44-1.21-2.88-2.44-4.31-3.66-2.32-.71-4.65-1.42-7-2.11" transform="translate(12.23 10.86)"/><path class="cls-7" d="M78.2,76.38l3.36,2.84a74.92,74.92,0,0,0,7.23,2.72c-3.47-1.92-7-3.82-10.51-5.53l-.08,0" transform="translate(12.23 10.86)"/><path class="cls-7" d="M331.42,105c-4.18.7-8.38,1.31-12.59,1.8q5.12,0,10.23,0l7.92,0,4.37,0q-4.07-.7-8.11-1.47l-1.82-.34m-72-.07q-6,.2-11.95.43-25.81,1-51.6,2.64c-1.9.12-3.81.26-5.72.4-4.35,1.31-8.72,2.61-13.08,3.89,1.67-.12,3.33-.25,5-.36q25.77-1.81,51.57-3,15.28-.69,30.56-1.17-2.42-1.36-4.78-2.84m8.69-.27-3.14.09c1.72,1,3.47,1.94,5.23,2.85q6.21-.18,12.43-.31a101.32,101.32,0,0,1-14.52-2.63m73.39-.85q10.92,1.89,21.91,3.24,16.21.27,32.43.79l-1.53-.41a189.52,189.52,0,0,1-20.57-3.18q-11.71-.25-23.42-.37l-8.82-.07m-22.13,0q-18.5.08-37,.49a128.34,128.34,0,0,0,15.57.92,174.83,174.83,0,0,0,21.42-1.41" transform="translate(12.23 10.86)"/><path class="cls-7" d="M325.29,103.81l-5.88,0A174.83,174.83,0,0,1,298,105.24a128.34,128.34,0,0,1-15.57-.92q-7.12.17-14.27.37a101.32,101.32,0,0,0,14.52,2.63q18.07-.41,36.16-.49c4.21-.49,8.41-1.1,12.59-1.8-2.05-.4-4.09-.8-6.13-1.22" transform="translate(12.23 10.86)"/><path class="cls-7" d="M338.09,103.82q-3.33.65-6.67,1.21l1.82.34q4,.76,8.11,1.47,11.06.06,22.1.24-11-1.33-21.91-3.24l-3.45,0" transform="translate(12.23 10.86)"/><path class="cls-7" d="M329.07,103.8h-3.78c2,.42,4.08.82,6.13,1.22q3.34-.57,6.67-1.21l-9,0" transform="translate(12.23 10.86)"/><path class="cls-7" d="M265,104.78l-5.55.18q2.37,1.47,4.78,2.84l6-.17c-1.76-.91-3.51-1.86-5.23-2.85" transform="translate(12.23 10.86)"/><path class="cls-7" d="M394.35,107.46l1.53.41,3.88.12c-1.8-.16-3.61-.34-5.41-.53" transform="translate(12.23 10.86)"/><path class="cls-7" d="M454.21,110.11q-3.15,0-6.3.06l5.25.31h.1a1.31,1.31,0,0,0,.95-.37M399,105c6.1.59,12.22,1,18.3,1.36q14.24.84,28.5.84h2q-24.4-1.38-48.83-2.2" transform="translate(12.23 10.86)"/><path class="cls-7" d="M190.19,108.43c-4.69.36-9.4.77-14.11,1.14-4.23,1.27-8.48,2.53-12.75,3.72,4.6-.25,9.2-.61,13.78-1,4.36-1.28,8.73-2.58,13.08-3.89" transform="translate(12.23 10.86)"/><path class="cls-7" d="M234.13,42.1q-3.25.46-6.49,1l9.27,3.11c.71-.82,1.42-1.64,2.12-2.47l-4.9-1.64m-10.57-3.53c-1.53.5-3.06,1-4.57,1.63l2.75.92q3.09-.59,6.2-1.09l-4.38-1.46M196.3,29.44q2,2.19,3.84,4.45L214.8,38.8c1.39-.62,2.8-1.2,4.23-1.75L197.38,29.8l-1.08-.36M109.92,2.52c-1.69,0-2.34,2.63-.53,2.91,13.13,2.06,25.69,6.66,38.24,10.86L187,29.49l7.77,2.6-1.13-1.26c-1-1.14-2.09-2.25-3.16-3.34L158,16.61c-12.6-4.22-25.16-8.94-38.07-12.11-3.22-.79-6.47-1.45-9.74-2l-.27,0" transform="translate(12.23 10.86)"/><path class="cls-7" d="M219,37.05c-1.43.55-2.84,1.13-4.23,1.75L219,40.2c1.51-.59,3-1.13,4.57-1.63L219,37.05" transform="translate(12.23 10.86)"/><path class="cls-7" d="M227.94,40q-3.1.51-6.2,1.09l5.9,2q3.24-.54,6.49-1L227.94,40" transform="translate(12.23 10.86)"/><path class="cls-7" d="M190.49,27.49c1.07,1.09,2.13,2.2,3.16,3.34l1.13,1.26,5.36,1.8q-1.87-2.26-3.84-4.45l-5.81-2" transform="translate(12.23 10.86)"/><path class="cls-7" d="M254.07,48.78c1,1.44,2.08,2.86,3.17,4.24l8.9,3c12.19,4.09,24.45,8.07,36.33,13q4.29,1.78,8.43,3.8,1.58-.93,3.12-1.89L310.8,69.4c-11.36-5.22-23.18-9.34-35-13.32l-21.71-7.3m-12-4L240,47.23l12.25,4.1q-1.47-2-2.83-4.12l-7.3-2.44" transform="translate(12.23 10.86)"/><path class="cls-7" d="M314,70.92q-1.54,1-3.12,1.89l.53.26c1.71-.31,3.41-.61,5.12-.9L314,70.92" transform="translate(12.23 10.86)"/><path class="cls-7" d="M359,99.23l-1.23.29,1.53.59c1.84.11,3.67.2,5.5.27-1.93-.4-3.86-.79-5.8-1.15m-26.79-18c-1.47.3-2.94.59-4.41.86Q332,84.69,336,87.42c3.35,2.24,6.73,4.47,10.22,6.5q5.12.72,10.2,1.65a92.16,92.16,0,0,1-13-6.86c-3.8-2.4-7.51-5-11.26-7.43m-11.29-6.82c-1.69.28-3.38.56-5.07.86q4.08,2.15,8.06,4.48l3.23-.56,1.47-.28-.88-.55c-2.23-1.38-4.5-2.69-6.81-4" transform="translate(12.23 10.86)"/><path class="cls-7" d="M355.49,98.59c.76.32,1.53.63,2.29.93l1.23-.29c-1.17-.22-2.34-.44-3.52-.64" transform="translate(12.23 10.86)"/><path class="cls-7" d="M328.62,79l-1.47.28-3.23.56c1.31.77,2.6,1.55,3.89,2.34,1.47-.27,2.94-.56,4.41-.86-1.19-.79-2.39-1.56-3.6-2.32" transform="translate(12.23 10.86)"/><path class="cls-7" d="M363.26,98.19l-4.25,1c1.94.36,3.87.75,5.8,1.15q3.1.11,6.19.13-3.93-1-7.74-2.32m-17-4.27c1.92,1.11,3.87,2.17,5.87,3.13l1,.49,5.12-1.22-1.81-.75q-5.08-.93-10.2-1.65" transform="translate(12.23 10.86)"/><path class="cls-7" d="M358.26,96.32l-5.12,1.22c.78.36,1.56.71,2.35,1,1.18.2,2.35.42,3.52.64l4.25-1c-1.69-.57-3.35-1.2-5-1.87" transform="translate(12.23 10.86)"/><path class="cls-7" d="M317.19,72.5l-3.1,1.9,1.77.92c1.69-.3,3.38-.58,5.07-.86-1.23-.67-2.48-1.32-3.74-2" transform="translate(12.23 10.86)"/><path class="cls-7" d="M316.55,72.17c-1.71.29-3.41.59-5.12.9l2.66,1.33,3.1-1.9-.64-.33" transform="translate(12.23 10.86)"/><path class="cls-7" d="M395.26,104.59l1.1.3L399,105c-1.24-.12-2.48-.24-3.72-.38m-16.81-1.16c-1.67,0-3.34,0-5,0-1.06,0-2.11,0-3.17,0,1.17.29,2.34.56,3.52.82l9,.21-4.35-1.06" transform="translate(12.23 10.86)"/><path class="cls-7" d="M384.76,103.23l-1,0c-1.76.06-3.51.12-5.27.15l4.35,1.06q6.78.18,13.56.4l-1.1-.3c-3.51-.38-7-.82-10.5-1.36" transform="translate(12.23 10.86)"/><path class="cls-7" d="M428.58,109.16a1.55,1.55,0,0,1,0,.71q8.65.3,17.31.31h2l-7.65-.42-11.68-.59m-19.43-.83,2.28.62c1.93.14,3.87.26,5.8.38,1.4-.14,2.81-.3,4.21-.49l-12.29-.51m90-4.07h-.19a490.32,490.32,0,0,1-51.11,2.9l5.35.31a1.58,1.58,0,0,1,1,2.63q17.25-.3,34.45-1.82,5.13-.47,10.26-1c1.84-.21,1.92-3,.19-3" transform="translate(12.23 10.86)"/><path class="cls-7" d="M421.44,108.84c-1.4.19-2.81.35-4.21.49,3.78.22,7.58.4,11.37.54a1.55,1.55,0,0,0,0-.71l-7.14-.32" transform="translate(12.23 10.86)"/><path class="cls-7" d="M399.76,108c2.41.23,4.83.43,7.23.62l4.44.34-2.28-.62-9.39-.34" transform="translate(12.23 10.86)"/><path class="cls-7" d="M396.36,104.89l12.79,3.44,12.29.51q2.67-.37,5.31-.88a1.29,1.29,0,0,1,.33,0,1.58,1.58,0,0,1,1.5,1.24l11.68.59,7.65.42q3.15,0,6.3-.06a1.58,1.58,0,0,0-1-2.63l-5.35-.31h-2q-14.26,0-28.5-.84c-6.08-.36-12.2-.77-18.3-1.36l-2.62-.08m-22.58-.61a189.52,189.52,0,0,0,20.57,3.18c-3.85-1-7.69-2-11.55-3l-9-.21" transform="translate(12.23 10.86)"/><path class="cls-7" d="M427.08,107.92a1.29,1.29,0,0,0-.33,0q-2.64.51-5.31.88l7.14.32a1.58,1.58,0,0,0-1.5-1.24" transform="translate(12.23 10.86)"/><path class="cls-7" d="M382.8,104.49c3.86,1,7.7,2,11.55,3,1.8.19,3.61.37,5.41.53l9.39.34-12.79-3.44q-6.78-.23-13.56-.4" transform="translate(12.23 10.86)"/><path class="cls-7" d="M137,87.42q2.4,1.69,4.94,3.26l.29.18c1.17-.45,2.32-.94,3.47-1.47a61.83,61.83,0,0,1-8.7-2m-9.52-3.74c-1.42.34-2.85.62-4.27.87a58,58,0,0,0,12.63,5.67q-2.79-1.93-5.44-4.08c-1-.81-2-1.63-2.92-2.46m81.46-11a99.51,99.51,0,0,1-37.48,16,79.62,79.62,0,0,1-15.27,1.51c-1.67,0-3.33,0-5-.17-1.57.86-3.17,1.67-4.82,2.42q4.29.45,8.6.78H156c18.34,0,37.15-6.63,52.1-16.41,1.46-1,2.88-1.94,4.28-3-1.17-.39-2.33-.78-3.48-1.18m10.09-8c-1.69,1.49-3.41,2.93-5.19,4.33l3.34,1.12c1.21-1,2.41-2,3.58-3-.58-.8-1.16-1.6-1.73-2.41m-118.44-15-1.42.07c0,.2,0,.41.08.62,1.75,13,9.71,24.18,20.21,31.69,1.45-.2,2.88-.44,4.3-.73-9.56-6-17.4-15.12-20.47-26.11-.15-.55-.3-1.1-.43-1.66-.77-1.28-1.53-2.58-2.27-3.88m-1.68-3v.1h0l0-.1m138-.47a212,212,0,0,1-15.67,16.46c.57.81,1.15,1.62,1.73,2.42a220.67,220.67,0,0,0,17-17.86l-3.05-1M106.63,20.38A40,40,0,0,0,99,40.58q1.36,2.66,2.81,5.28a37.38,37.38,0,0,1,8.35-25.12c-1.18-.16-2.37-.28-3.56-.36m4.22-4.68c-.66.61-1.3,1.25-1.91,1.91,1.23.15,2.46.33,3.68.55.32-.31.65-.62,1-.91a1.49,1.49,0,0,0,.43-.62c-1.05-.34-2.11-.65-3.19-.93" transform="translate(12.23 10.86)"/><path class="cls-7" d="M98.94,46.78h0c0,1,.13,2,.25,3l1.42-.07c-.55-1-1.09-2-1.63-2.93" transform="translate(12.23 10.86)"/><path class="cls-7" d="M209.76,72.06l-.84.59c1.15.4,2.31.79,3.48,1.18l.29-.22-2.93-1.55M108.94,17.61a35.67,35.67,0,0,0-2.31,2.77c1.19.08,2.38.2,3.56.36a32.83,32.83,0,0,1,2.43-2.58c-1.22-.22-2.45-.4-3.68-.55" transform="translate(12.23 10.86)"/><path class="cls-7" d="M211,71.2l-1.19.86,2.93,1.55c.56-.41,1.12-.82,1.67-1.25l-3.06-1L211,71.2" transform="translate(12.23 10.86)"/><path class="cls-7" d="M213.82,69l-1.2.93-.18.13q1.44.77,2.85,1.56c.63-.49,1.25-1,1.87-1.5L213.82,69M112.49,14.73a1.53,1.53,0,0,0-1,.39l-.64.58c1.08.28,2.14.59,3.19.93a1.58,1.58,0,0,0-1.55-1.9" transform="translate(12.23 10.86)"/><path class="cls-7" d="M212.44,70.08l-.57.44c1.14.38,2.27.76,3.42,1.12h0q-1.41-.8-2.85-1.56" transform="translate(12.23 10.86)"/><path class="cls-7" d="M211.87,70.52l-.92.68.35.12,3.06,1,.93-.72c-1.15-.36-2.28-.74-3.42-1.12" transform="translate(12.23 10.86)"/><path class="cls-7" d="M145.68,89.39c-1.15.53-2.3,1-3.47,1.47.77.47,1.54.93,2.32,1.36l1.83.2c1.65-.75,3.25-1.56,4.82-2.42-1.84-.13-3.68-.33-5.5-.61" transform="translate(12.23 10.86)"/><path class="cls-7" d="M123.74,81.36c-1.42.29-2.85.53-4.3.73l.62.43c1,.72,2.07,1.39,3.13,2,1.42-.25,2.85-.53,4.27-.87l-.5-.44c-1.09-.59-2.17-1.22-3.22-1.88" transform="translate(12.23 10.86)"/><path class="cls-7" d="M221.24,62.67c-.74.68-1.48,1.36-2.23,2,.57.81,1.15,1.61,1.73,2.41.75-.66,1.49-1.33,2.23-2-.58-.8-1.16-1.61-1.73-2.42" transform="translate(12.23 10.86)"/><path class="cls-7" d="M146.36,92.42l-.24.11a72.29,72.29,0,0,0,8.84.67q-4.31-.33-8.6-.78" transform="translate(12.23 10.86)"/><path class="cls-7" d="M144.53,92.22l.17.09,1.42.22.24-.11-1.83-.2" transform="translate(12.23 10.86)"/><path class="cls-7" d="M102.14,49.64l-1.57.07c.74,1.3,1.5,2.6,2.27,3.88-.3-1.3-.53-2.62-.7-4M99,40.58a42.82,42.82,0,0,0-.14,6.1l0,.1,2.87-.13h.07c0-.26,0-.53,0-.79Q100.4,43.24,99,40.58" transform="translate(12.23 10.86)"/><path class="cls-7" d="M101.88,46.65h-.07l-2.87.13c.54,1,1.08,2,1.63,2.93l1.57-.07c-.13-1-.21-2-.26-3" transform="translate(12.23 10.86)"/><path class="cls-7" d="M127.68,83.62l-.22.06c1,.83,1.93,1.65,2.92,2.46q2.66,2.14,5.44,4.08c1.54.49,3.11.91,4.68,1.27q.85-.3,1.71-.63l-.29-.18q-2.53-1.56-4.94-3.26a55.38,55.38,0,0,1-9.3-3.8" transform="translate(12.23 10.86)"/><path class="cls-7" d="M142.21,90.86q-.86.33-1.71.63c1,.23,2,.43,3,.61l1.07.12c-.78-.43-1.55-.89-2.32-1.36" transform="translate(12.23 10.86)"/><path class="cls-7" d="M127,83.24l.5.44.22-.06-.15-.08-.57-.3" transform="translate(12.23 10.86)"/><path class="cls-7" d="M143.46,92.1c.41.08.82.15,1.24.21l-.17-.09-1.07-.12" transform="translate(12.23 10.86)"/><path class="cls-7" d="M245.51,40.74c-1.44.14-2.87.3-4.31.46-.72.85-1.44,1.7-2.17,2.54l3.05,1c1.15-1.34,2.29-2.69,3.43-4m3.28-.31-3.26.31c1.2,2.21,2.49,4.37,3.85,6.47l4.69,1.57a94.76,94.76,0,0,1-5.28-8.35m-3-3.87a1.31,1.31,0,0,0-1,.44l-.78.92,3.28-.33-.15-.29a1.49,1.49,0,0,0-1.33-.74" transform="translate(12.23 10.86)"/><path class="cls-7" d="M247.26,37.59l-3.28.33L241.2,41.2c1.44-.16,2.87-.32,4.31-.46v0l3.26-.31c-.53-.94-1-1.88-1.53-2.84" transform="translate(12.23 10.86)"/><path class="cls-7" d="M356.21,99.9Q351.7,101,347.15,102a214.82,214.82,0,0,0,23.11,1.5l-.8-.2a99.3,99.3,0,0,1-10.15-3.15l-3.1-.21M316,94.83h-1.52a164.93,164.93,0,0,0,24,5.87c2.81-.55,5.59-1.14,8.36-1.75-1.4-.17-2.79-.36-4.19-.56A168.57,168.57,0,0,1,326,95.1c-3.34-.18-6.68-.27-10-.27M299.11,85.5c-2.06.11-4.12.2-6.18.25q2.83,1.48,5.75,2.85c2.66,1.24,5.34,2.39,8.06,3.45,2.71-.12,5.41-.2,8.13-.23a143.09,143.09,0,0,1-15.76-6.32m-9.44-4.94-4.2,1,2.23,1.33c1.39,0,2.78,0,4.16-.06l1-.44c-1.08-.59-2.15-1.18-3.21-1.8M252.21,51.33a112.82,112.82,0,0,0,29.71,28l4-.94A120.93,120.93,0,0,1,273,69.05a106.62,106.62,0,0,1-15.76-16l-5-1.69" transform="translate(12.23 10.86)"/><path class="cls-7" d="M346.83,99c-2.77.61-5.55,1.2-8.36,1.75,2.88.49,5.78.9,8.68,1.25q4.55-1,9.06-2.06-4.69-.36-9.38-.94" transform="translate(12.23 10.86)"/><path class="cls-7" d="M296.15,84.06c-1.15.53-2.32,1-3.49,1.55l.27.14c2.06,0,4.12-.14,6.18-.25-1-.47-2-1-3-1.44m-4.29-1.26c-1.38,0-2.77,0-4.16.06.56.33,1.13.65,1.7,1,.83-.33,1.65-.68,2.46-1" transform="translate(12.23 10.86)"/><path class="cls-7" d="M292.88,82.36l-1,.44,1.77,0-.75-.4" transform="translate(12.23 10.86)"/><path class="cls-7" d="M293.63,82.76l-1.77,0c-.81.35-1.63.7-2.46,1,1.08.61,2.17,1.2,3.26,1.78,1.17-.5,2.34-1,3.49-1.55l-2.52-1.3" transform="translate(12.23 10.86)"/><path class="cls-7" d="M314.87,91.82c-2.72,0-5.42.11-8.13.23q3.84,1.5,7.74,2.79H316c3.36,0,6.7.09,10,.27q-5.64-1.44-11.17-3.28" transform="translate(12.23 10.86)"/><path class="cls-7" d="M286,78.34l-4,.94c1.17.77,2.36,1.52,3.55,2.25l4.2-1c-1.25-.71-2.49-1.46-3.72-2.22" transform="translate(12.23 10.86)"/><path class="cls-7" d="M437,94.29a1.32,1.32,0,0,0-.28,0c-19,3.15-38.26,5.7-57.55,6.14q5.06,1.24,10.1,2.56a454.8,454.8,0,0,0,48.24-5.81c1.81-.3,1.17-2.91-.51-2.91" transform="translate(12.23 10.86)"/><path class="cls-7" d="M379.14,100.45c-2,0-3.95.07-5.93.07H371q3.66.94,7.42,1.65,3.16.59,6.34,1.07c1.49-.06,3-.14,4.48-.22q-5-1.32-10.1-2.56" transform="translate(12.23 10.86)"/><path class="cls-7" d="M359.31,100.11a99.3,99.3,0,0,0,10.15,3.15l.8.2c1.06,0,2.11,0,3.17,0,1.68,0,3.35,0,5,0q-6.79-1.64-13.64-3.05c-1.83-.07-3.66-.16-5.5-.27M249.38,47.21q1.37,2.1,2.83,4.12l5,1.69c-1.09-1.38-2.15-2.8-3.17-4.24l-4.69-1.57M239,43.74c-.7.83-1.41,1.65-2.12,2.47l3.05,1,2.12-2.46-3.05-1" transform="translate(12.23 10.86)"/><path class="cls-7" d="M364.81,100.38q6.84,1.41,13.64,3.05c1.76,0,3.51-.09,5.27-.15l1,0q-3.18-.48-6.34-1.07-3.76-.7-7.42-1.65-3.09,0-6.19-.13" transform="translate(12.23 10.86)"/></g></g></g></g></g></g></svg>