<svg xmlns="http://www.w3.org/2000/svg" xmlns:xlink="http://www.w3.org/1999/xlink" viewBox="0 0 418.6 198.4"><defs><style>.cls-1{fill:none;}.cls-2{fill:#1c1c1c;}.cls-3{clip-path:url(#clip-path);}.cls-4{fill:#1e1e1e;}.cls-5{fill:#212121;}.cls-6{fill:#232323;}.cls-7{fill:#252525;}</style><clipPath id="clip-path" transform="translate(28.08 25.97)"><rect class="cls-1" width="370" height="139" rx="5"/></clipPath></defs><title>Asset 14</title><g id="Layer_2" data-name="Layer 2"><g id="Layer_1-2" data-name="Layer 1"><rect class="cls-2" x="28.08" y="25.97" width="370" height="139" rx="5"/><g class="cls-3"><path class="cls-4" d="M-8.36,19.9c8.59-2.49,13,7.69,24,6.07C38.3,22.61,45.28-24.78,53.88-23.62s-.05,48.38,17.93,58c23.35,12.51,77.72-45.72,84.4-39,4,4-16,23.78-9.5,37.19,4.3,8.82,18.32,10,35,11.59C201,46,213.58,47.14,228,40.74c0,0,20.9-9.33,43.57-43.32h0A56.87,56.87,0,0,1,279.64-10c19.1-14.51,97.07-5,97.58,11.44.35,11.33-36.33,12.33-40.75,34-2.84,14,8.78,31.9,21,33.63,15.73,2.23,31.17-22.69,33-21.23,2.57,2.07-39.28,44.47-28,69.89,4.86,10.9,16.11,11.09,15.82,16.09-1.08,18.93-163.48,33.08-170.11,7.38C206,132.66,222.71,126,220,116.16c-5.63-20.72-85.77-22.25-93.1-4.48-2.83,6.89,7,15.51,4.49,17.94-4,3.91-24.08-22.36-45-21-31.62,2.1-50.34,66.56-58.15,63.69-6-2.22,9.61-39.08-6.62-54.89-10.58-10.31-23.77-1.08-36.11-10.52C-37.78,89.07-28.13,25.62-8.36,19.9Z" transform="translate(28.08 25.97)"/><path class="cls-5" d="M28.56,141.75c-2.2-3.36,1.56-8,2.9-12.66C37.31,108.61-4.61,92.24-3.88,69c.42-13.25,14.4-20.91,38.24-53.28,2.11-2.86,10-13.87,6.6-20.83-.58-1.17-1.54-2.33-1.06-3.17C41-10.21,47.22-6.66,58.36-5.95c3.89.25,5.25,0,6.07,1.06,2.18,3-4.83,8.88-6.33,16.35-2,9.73,5.11,22.51,13.71,27.17,21.07,11.41,54.88-24,64.88-14.77,6.39,5.87-5.57,22,3.69,34,4.86,6.3,13,8.23,19.52,9.76,15.52,3.65,26.73-.86,27.43,1.32s-8.7,8.18-20.31,12.13c-22.76,7.73-35,.58-42.2,9-7.43,8.7.52,22.52-5.53,25.85s-13.58-10.23-30.07-11.34c-1.36-.09-14.71-.94-24.53,7.65-11.6,10.16-7.47,24.75-19,30.59C39.51,145.94,31,145.45,28.56,141.75Z" transform="translate(28.08 25.97)"/><path class="cls-6" d="M21.44,63.42C24,37.83,43,15.35,50.71,17.79,57.79,20,52,42.27,64.43,49.18c5.59,3.09,8.78-.26,19.25,1C94,51.53,113.36,57.6,115.07,70c1.64,12-13.62,26.2-25.06,25.06-9.56-1-10.9-12.11-21.1-12.66C60.24,81.94,50.34,89.42,47,98c-2.66,6.84-.63,13.14-3.43,14.24s-7-3.9-8.44-5.54C19.05,87.84,21.44,63.42,21.44,63.42Z" transform="translate(28.08 25.97)"/><path class="cls-7" d="M87.37,61c-5.27-4.17-12,2.59-20.3-1.58-7.69-3.85-6.67-12-13.19-13.72-6-1.59-12.93,3.64-16.35,8.18C28.42,66,34,86.88,41.22,88.7c6.91,1.74,11.5-14.74,24-15,10.84-.25,16.21,11.94,21.63,9.5S93.42,65.8,87.37,61Z" transform="translate(28.08 25.97)"/><path class="cls-5" d="M287.5-13c-11.29,9.5-29.33,34.44-35,50.29A38.19,38.19,0,0,1,245.35,50c-5,5.82-10.93,8.92-16.09,11.07-20.82,8.69-37.57,5.41-38.24,8.71-1,4.91,36.79,8.32,42.73,27.16,5.62,17.85-21.7,35.76-15.83,46.16,4.78,8.45,25.77,1.63,54.33-.8,61.45-5.2,103.59,12.59,107.08,2.91,2.57-7.13-21.24-14.08-23.74-33.5-3.12-24.35,29.89-48.07,27.56-50.5C381.35,59.29,366,78.29,351.9,75c-13.29-3.09-24.35-25.83-19.78-43.51C339.07,4.65,379,1.35,377.62-9.24,375.94-21.93,316.75-37.6,287.5-13Z" transform="translate(28.08 25.97)"/></g><rect class="cls-2" x="282.25" y="40.3" width="75.67" height="75.67" rx="37.84"/><path class="cls-2" d="M321.46,82.2H262.54A25.54,25.54,0,0,0,237,107.74h0a17.74,17.74,0,0,0,17.74,17.74h74.52A17.74,17.74,0,0,0,347,107.74h0A25.54,25.54,0,0,0,321.46,82.2Z" transform="translate(28.08 25.97)"/></g></g></svg>