<svg xmlns="http://www.w3.org/2000/svg" xmlns:xlink="http://www.w3.org/1999/xlink" viewBox="0 0 435.81 197.63"><defs><style>.cls-1{fill:none;}.cls-2{fill:#1c1c1c;}.cls-3{clip-path:url(#clip-path);}.cls-4{fill:#1e1e1e;}.cls-5{fill:#232323;}.cls-6{fill:#212121;}</style><clipPath id="clip-path" transform="translate(28.93 21.92)"><rect class="cls-1" width="370" height="139" rx="5"/></clipPath></defs><title>Asset 10</title><g id="Layer_2" data-name="Layer 2"><g id="Layer_1-2" data-name="Layer 1"><rect class="cls-2" x="28.93" y="21.92" width="370" height="139" rx="5"/><g class="cls-3"><path class="cls-4" d="M-15.75,123.79C-6.49,88.92,76.72,66.89,144.08,89c35.23,11.55,32.29,24.09,59.07,26.9C251.72,121,274.58,81.12,325,83.18c25.92,1,46.79,12.68,60.66,22.68v34.3H-15.23A30.26,30.26,0,0,1-15.75,123.79Z" transform="translate(28.93 21.92)"/><path class="cls-5" d="M-11,49.42c20.51,20.67,89.5-35,121.32-10,20.62,16.16,6.48,51.13,25.32,60.13C157.5,110,180.33,64.68,223.2,66.82c36.31,1.82,49.88,35.82,73.84,28,22.74-7.45,21.18-41.56,40.62-45.89,10.53-2.35,27.13,4.07,53.8,42.2l-1-93.36H-6.78C-20.25,31.29-16.44,43.93-11,49.42Z" transform="translate(28.93 21.92)"/><path class="cls-6" d="M-28.93,129.07c.2-10,40.67-23.43,76.48-16.88,27.19,5,31.5,17.76,48,14.77,29-5.26,54.33-51.77,49.05-90.73-3.32-24.58-17-32.89-11.6-43.78,11.39-22.81,86.27-15.83,90.73,2.64,2.61,10.87-20.94,18.33-48,49.05-20.94,23.77-40.62,44.55-41.15,72.27-.34,18,7.46,22.25,3.69,30.06C122.8,178.56-29.33,148.53-28.93,129.07Z" transform="translate(28.93 21.92)"/><path class="cls-6" d="M405.18,122.21c-8.05-11.92-37.27,7.19-64.36-2.11C299.89,106.05,281,33,298.1,18.3c12.14-10.45,38.58,11.88,59.08-3.17,7.3-5.36,14.32-15.81,11.6-23.21C362.5-25.14,306.09-21.23,265.4-5.44c-6.79,2.63-31,12-30.07,21.1.78,7.4,17.47,6.35,32.18,17.41,27.38,20.58,33,71.92,16.35,84.92-12.27,9.59-33.84-3.88-41.67,6.86-5.22,7.13,0,19,.52,20,17.07,37.24,129.75,44.19,157.72,1.58C400.94,145.7,410.73,130.44,405.18,122.21Z" transform="translate(28.93 21.92)"/></g></g></g></svg>