<svg xmlns="http://www.w3.org/2000/svg" xmlns:xlink="http://www.w3.org/1999/xlink" viewBox="0 0 445.15 215.31"><defs><style>.cls-1{fill:none;}.cls-2{fill:#1c1c1c;}.cls-3{clip-path:url(#clip-path);}.cls-4{fill:#212121;}.cls-5{fill:#1e1e1e;}.cls-6{fill:#232323;}</style><clipPath id="clip-path" transform="translate(60.69 63.74)"><rect class="cls-1" width="370" height="139" rx="5"/></clipPath></defs><title>Asset 7</title><g id="Layer_2" data-name="Layer 2"><g id="Layer_1-2" data-name="Layer 1"><rect class="cls-2" x="60.69" y="63.74" width="370" height="139" rx="5"/><g class="cls-3"><polygon class="cls-4" points="391.78 155.12 289.32 155.12 391.78 203.74 391.78 155.12"/><polygon class="cls-2" points="278.64 113.44 289.32 155.12 391.78 155.12 278.64 113.44"/><polygon class="cls-5" points="415.27 71.77 445.15 203.74 391.78 203.74 391.78 155.12 415.27 71.77"/><polygon class="cls-2" points="445.15 203.74 445.15 71.77 415.27 71.77 445.15 203.74"/><polygon class="cls-4" points="391.78 155.12 415.27 71.77 221 83.35 278.64 113.44 391.78 155.12"/><polygon class="cls-2" points="221 83.35 235.95 145.86 289.32 155.12 221 83.35"/><polygon class="cls-5" points="221 83.35 278.64 113.44 289.32 155.12 221 83.35"/><polygon class="cls-5" points="289.32 155.12 270.1 201.42 235.95 145.86 289.32 155.12"/><polygon class="cls-2" points="270.1 201.42 391.78 203.74 289.32 155.12 270.1 201.42"/><polygon class="cls-5" points="221 83.35 344.82 32.41 308.28 78.15 221 83.35"/><polygon class="cls-5" points="344.82 32.41 415.27 71.77 307.97 78.17 344.82 32.41"/><polygon class="cls-2" points="445.15 71.77 438.75 0 415.27 71.77 445.15 71.77"/><polygon class="cls-2" points="438.75 0 387.51 20.84 415.27 71.77 438.75 0"/><polygon class="cls-2" points="387.51 20.84 344.82 32.41 415.27 71.77 387.51 20.84"/><polygon class="cls-5" points="221 83.35 118.53 90.29 235.95 145.86 221 83.35"/><polygon class="cls-2" points="270.1 201.42 178.31 215.31 193.25 180.59 270.1 201.42"/><polygon class="cls-4" points="193.25 180.59 249.52 167.94 270.1 201.42 193.25 180.59"/><polygon class="cls-4" points="118.53 90.29 178.31 215.31 193.25 180.59 118.53 90.29"/><polygon class="cls-6" points="193.25 180.59 235.95 145.86 249.53 167.95 193.25 180.59"/><polygon class="cls-2" points="118.53 90.29 193.25 180.59 235.95 145.86 118.53 90.29"/><polygon class="cls-2" points="178.31 215.31 118.53 215.31 153.4 163.22 178.31 215.31"/><polygon class="cls-2" points="118.53 215.31 118.53 155.12 153.7 163.22 118.53 215.31"/><polygon class="cls-2" points="118.53 90.29 153.53 163.48 118.53 155.12 118.53 90.29"/><polygon class="cls-2" points="118.53 90.29 146.29 16.21 158.79 87.56 118.53 90.29"/><polygon class="cls-2" points="153.65 58.24 221 83.35 158.79 87.56 153.65 58.24"/><polygon class="cls-2" points="191.12 32.41 221 83.35 152.69 57.88 191.12 32.41"/><polygon class="cls-2" points="191.12 32.41 303.3 49.49 221 83.35 191.12 32.41"/><polygon class="cls-2" points="178.31 215.31 278.64 215.31 270.1 201.42 178.31 215.31"/><polygon class="cls-2" points="278.64 215.31 270.1 201.42 445.15 203.74 278.64 215.31"/><polygon class="cls-2" points="118.53 215.31 12.2 176.61 118.53 197.95 118.53 215.31"/><polygon class="cls-2" points="12.2 176.61 118.53 155.12 118.53 197.95 12.2 176.61"/><polygon class="cls-2" points="12.2 176.61 47.07 68.22 77.17 163.48 12.2 176.61"/><polygon class="cls-2" points="65.37 126.89 118.53 155.12 77.17 163.48 65.37 126.89"/><polygon class="cls-2" points="65.37 126.89 118.53 90.29 118.53 155.12 65.37 126.89"/><polygon class="cls-2" points="47.07 68.22 65.37 126.89 118.53 90.29 47.07 68.22"/><polygon class="cls-2" points="47.07 68.22 146.29 16.21 118.53 90.29 47.07 68.22"/><polygon class="cls-2" points="12.2 176.61 0 215.31 118.53 215.31 12.2 176.61"/></g><rect class="cls-2" x="314.86" y="78.07" width="75.67" height="75.67" rx="37.84"/><path class="cls-2" d="M321.46,82.2H262.54A25.54,25.54,0,0,0,237,107.74h0a17.74,17.74,0,0,0,17.74,17.74h74.52A17.74,17.74,0,0,0,347,107.74h0A25.54,25.54,0,0,0,321.46,82.2Z" transform="translate(60.69 63.74)"/></g></g></svg>