<svg xmlns="http://www.w3.org/2000/svg" width="46" height="54.013" viewBox="0 0 46 54.013">
  <defs>
    <style>
      .cls-1, .cls-2 {
        fill: #fff;
      }

      .cls-2 {
        font-size: 12px;
        font-family: Arial-BoldMT, Arial;
        font-weight: 700;
      }
    </style>
  </defs>
  <g id="Discord" transform="translate(-1044 -1006)">
    <g id="Discord-Logo-Black" transform="translate(1018 1007.209)">
      <path id="Path_910" data-name="Path 910" class="cls-1" d="M95.873,103.9a1.827,1.827,0,1,0,1.673,1.821A1.747,1.747,0,0,0,95.873,103.9Zm5.987,0a1.827,1.827,0,1,0,1.673,1.821A1.747,1.747,0,0,0,101.86,103.9Z" transform="translate(-49.49 -70.139)"/>
      <path id="Path_911" data-name="Path 911" class="cls-1" d="M60.341,20H38.362A3.37,3.37,0,0,0,35,23.379V45.554a3.37,3.37,0,0,0,3.362,3.379h18.6L56.093,45.9l2.1,1.952,1.985,1.837L63.7,52.8V23.379A3.37,3.37,0,0,0,60.341,20ZM54.01,41.421s-.59-.705-1.083-1.329A5.176,5.176,0,0,0,55.9,38.14a9.385,9.385,0,0,1-1.886.968,10.8,10.8,0,0,1-2.378.705,11.49,11.49,0,0,1-4.248-.016,13.768,13.768,0,0,1-2.411-.705,9.613,9.613,0,0,1-1.2-.558c-.049-.033-.1-.049-.148-.082a.226.226,0,0,1-.066-.049c-.3-.164-.459-.279-.459-.279a5.1,5.1,0,0,0,2.87,1.935c-.492.623-1.1,1.361-1.1,1.361a5.947,5.947,0,0,1-5-2.493,21.965,21.965,0,0,1,2.362-9.562,8.111,8.111,0,0,1,4.609-1.722l.164.2a11.065,11.065,0,0,0-4.314,2.149s.361-.2.968-.476a12.317,12.317,0,0,1,3.723-1.033,1.616,1.616,0,0,1,.279-.033,13.878,13.878,0,0,1,3.313-.033,13.37,13.37,0,0,1,4.937,1.575,10.916,10.916,0,0,0-4.084-2.083l.23-.262a8.111,8.111,0,0,1,4.609,1.722,21.965,21.965,0,0,1,2.362,9.562A6,6,0,0,1,54.01,41.421Z" transform="translate(0)"/>
    </g>
    <text id="Discord-2" data-name="Discord" class="cls-2" transform="translate(1067 1017)"><tspan x="-22.339" y="0">Discord</tspan></text>
  </g>
</svg>
