<svg xmlns="http://www.w3.org/2000/svg" width="40.371" height="54.013" viewBox="0 0 40.371 54.013">
  <defs>
    <style>
      .cls-1, .cls-2 {
        fill: #fff;
      }

      .cls-2 {
        font-size: 12px;
        font-family: Arial-BoldMT, Arial;
        font-weight: 700;
      }
    </style>
  </defs>
  <g id="Twitter" transform="translate(-835 -1006)">
    <g id="Logo_1_" transform="translate(834 1025.712)">
      <path id="white_background" class="cls-1" d="M37.238,9.664c.025.356.025.712.025,1.071C37.262,21.679,28.931,34.3,13.7,34.3v-.007A23.448,23.448,0,0,1,1,30.581a16.847,16.847,0,0,0,1.971.12,16.632,16.632,0,0,0,10.287-3.552A8.293,8.293,0,0,1,5.52,21.4a8.256,8.256,0,0,0,3.739-.143,8.283,8.283,0,0,1-6.644-8.118v-.1a8.23,8.23,0,0,0,3.759,1.037A8.293,8.293,0,0,1,3.811,3.008a23.508,23.508,0,0,0,17.07,8.653A8.29,8.29,0,0,1,35,4.107,16.62,16.62,0,0,0,40.255,2.1a8.313,8.313,0,0,1-3.641,4.581,16.472,16.472,0,0,0,4.756-1.3A16.826,16.826,0,0,1,37.238,9.664Z"/>
    </g>
    <text id="Twitter-2" data-name="Twitter" class="cls-2" transform="translate(855 1017)"><tspan x="-19.222" y="0">Twitter</tspan></text>
  </g>
</svg>
