<svg xmlns="http://www.w3.org/2000/svg" width="111.59" height="111.586" viewBox="0 0 111.59 111.586">
  <g id="Favicon" transform="translate(-357.53)">
    <rect id="Rectangle_28" data-name="Rectangle 28" width="17.994" height="64.79" rx="8.997" transform="translate(451.122 46.796)" fill="#fff"/>
    <rect id="Rectangle_22" data-name="Rectangle 22" width="17.994" height="64.069" rx="8.997" transform="translate(451.122 0.021)" fill="#ed1e79"/>
    <rect id="Rectangle_23" data-name="Rectangle 23" width="17.994" height="64.79" rx="8.997" transform="translate(357.53 0)" fill="#fff"/>
    <rect id="Rectangle_24" data-name="Rectangle 24" width="17.994" height="61.565" rx="8.997" transform="translate(357.53 49.451)" fill="#ed1e79"/>
    <rect id="Rectangle_25" data-name="Rectangle 25" width="17.994" height="111.586" rx="8.997" transform="translate(469.116 93.592) rotate(90)" fill="#fff"/>
    <rect id="Rectangle_26" data-name="Rectangle 26" width="17.994" height="111.586" rx="8.997" transform="translate(469.116 0) rotate(90)" fill="#fff"/>
    <rect id="Rectangle_27" data-name="Rectangle 27" width="17.994" height="111.586" rx="8.997" transform="translate(469.12 46.796) rotate(90)" fill="#fff"/>
    <rect id="Rectangle_29" data-name="Rectangle 29" width="7.007" height="7.007" rx="3.503" transform="translate(384.796 38.089) rotate(90)" fill="#fff"/>
    <rect id="Rectangle_30" data-name="Rectangle 30" width="7.007" height="7.007" rx="3.503" transform="translate(384.836 28.937) rotate(90)" fill="#fff"/>
    <rect id="Rectangle_31" data-name="Rectangle 31" width="7.007" height="7.007" rx="3.503" transform="translate(384.792 19.785) rotate(90)" fill="#fff"/>
    <rect id="Rectangle_32" data-name="Rectangle 32" width="2.997" height="40.19" rx="1.499" transform="translate(427.721 40.092) rotate(90)" fill="#fff"/>
    <rect id="Rectangle_33" data-name="Rectangle 33" width="2.997" height="40.19" rx="1.499" transform="translate(427.724 30.94) rotate(90)" fill="#fff"/>
    <rect id="Rectangle_34" data-name="Rectangle 34" width="2.997" height="40.19" rx="1.499" transform="translate(427.721 21.788) rotate(90)" fill="#fff"/>
    <rect id="Rectangle_35" data-name="Rectangle 35" width="7.007" height="7.007" rx="3.503" transform="translate(448.803 84.838) rotate(90)" fill="#fff"/>
    <rect id="Rectangle_36" data-name="Rectangle 36" width="7.007" height="7.007" rx="3.503" transform="translate(448.759 75.69) rotate(90)" fill="#fff"/>
    <rect id="Rectangle_37" data-name="Rectangle 37" width="7.007" height="7.007" rx="3.503" transform="translate(448.799 66.534) rotate(90)" fill="#fff"/>
    <rect id="Rectangle_38" data-name="Rectangle 38" width="2.997" height="40.19" rx="1.499" transform="translate(439.057 86.844) rotate(90)" fill="#fff"/>
    <rect id="Rectangle_39" data-name="Rectangle 39" width="2.997" height="40.19" rx="1.499" transform="translate(439.054 77.693) rotate(90)" fill="#fff"/>
    <rect id="Rectangle_40" data-name="Rectangle 40" width="2.997" height="40.19" rx="1.499" transform="translate(439.054 68.541) rotate(90)" fill="#fff"/>
  </g>
</svg>
