<svg xmlns="http://www.w3.org/2000/svg" width="243" height="69" viewBox="0 0 243 69">
  <g id="UC" transform="translate(-20 -18.07)">
    <text id="SORRY_WE_ARE_UNDER_CONSTRUCTION" data-name="SORRY,
WE ARE UNDER
CONSTRUCTION" transform="translate(91 39.07)" font-size="19" font-family="Arial-Black, Arial" font-weight="800"><tspan x="0" y="0">SORRY,</tspan><tspan x="0" y="21">WE ARE UNDER</tspan><tspan x="0" y="42">CONSTRUCTION</tspan></text>
    <g id="Favicon" transform="translate(20 22.193)">
      <rect id="Rectangle_28" data-name="Rectangle 28" width="9.805" height="35.304" rx="4.902" transform="translate(50.999 25.5)"/>
      <rect id="Rectangle_22" data-name="Rectangle 22" width="9.805" height="34.912" rx="4.902" transform="translate(50.999 0.011)" fill="#ed1e79"/>
      <rect id="Rectangle_23" data-name="Rectangle 23" width="9.805" height="35.304" rx="4.902" transform="translate(0 0)"/>
      <rect id="Rectangle_24" data-name="Rectangle 24" width="9.805" height="33.547" rx="4.902" transform="translate(0 26.946)" fill="#ed1e79"/>
      <rect id="Rectangle_25" data-name="Rectangle 25" width="9.805" height="60.804" rx="4.902" transform="translate(60.804 50.999) rotate(90)"/>
      <rect id="Rectangle_26" data-name="Rectangle 26" width="9.805" height="60.804" rx="4.902" transform="translate(60.804 0) rotate(90)"/>
      <path id="Path_89" data-name="Path 89" d="M4.9,0A4.9,4.9,0,0,1,9.8,4.9v51a4.9,4.9,0,1,1-9.8,0V4.9A4.9,4.9,0,0,1,4.9,0Z" transform="translate(60.806 25.5) rotate(90)"/>
      <rect id="Rectangle_29" data-name="Rectangle 29" width="3.818" height="3.818" rx="1.909" transform="translate(14.857 20.755) rotate(90)"/>
      <rect id="Rectangle_30" data-name="Rectangle 30" width="3.818" height="3.818" rx="1.909" transform="translate(14.879 15.768) rotate(90)"/>
      <rect id="Rectangle_31" data-name="Rectangle 31" width="3.818" height="3.818" rx="1.909" transform="translate(14.855 10.781) rotate(90)"/>
      <rect id="Rectangle_32" data-name="Rectangle 32" width="1.633" height="21.9" rx="0.817" transform="translate(38.247 21.846) rotate(90)"/>
      <rect id="Rectangle_33" data-name="Rectangle 33" width="1.633" height="21.9" rx="0.817" transform="translate(38.249 16.859) rotate(90)"/>
      <rect id="Rectangle_34" data-name="Rectangle 34" width="1.633" height="21.9" rx="0.817" transform="translate(38.247 11.873) rotate(90)"/>
      <rect id="Rectangle_35" data-name="Rectangle 35" width="3.818" height="3.818" rx="1.909" transform="translate(49.735 46.229) rotate(90)"/>
      <rect id="Rectangle_36" data-name="Rectangle 36" width="3.818" height="3.818" rx="1.909" transform="translate(49.711 41.244) rotate(90)"/>
      <rect id="Rectangle_37" data-name="Rectangle 37" width="3.818" height="3.818" rx="1.909" transform="translate(49.733 36.255) rotate(90)"/>
      <rect id="Rectangle_38" data-name="Rectangle 38" width="1.633" height="21.9" rx="0.817" transform="translate(44.425 47.322) rotate(90)"/>
      <rect id="Rectangle_39" data-name="Rectangle 39" width="1.633" height="21.9" rx="0.817" transform="translate(44.423 42.335) rotate(90)"/>
      <rect id="Rectangle_40" data-name="Rectangle 40" width="1.633" height="21.9" rx="0.817" transform="translate(44.423 37.348) rotate(90)"/>
    </g>
  </g>
</svg>
